<svg width="118" height="108" viewBox="0 0 118 108" fill="none" xmlns="http://www.w3.org/2000/svg">
<path d="M79.4512 39.1801C71.0812 39.1801 62.5612 38.8401 54.5912 36.6201C46.7712 34.4501 39.5912 30.2401 33.1912 25.3701C29.0012 22.2001 25.1912 19.6701 19.7512 20.0501C14.4293 20.3381 9.34 22.3254 5.23121 25.7201C-1.68879 31.7801 -0.648793 43.0101 2.12121 50.8701C6.28121 62.7401 18.9412 71.0101 29.7012 76.3601C42.1312 82.5701 55.7912 86.1801 69.4812 88.2501C81.4812 90.0801 96.9012 91.4001 107.301 83.5701C116.851 76.3601 119.471 59.9201 117.131 48.8201C116.563 45.5409 114.817 42.5821 112.221 40.5001C105.511 35.5901 95.5012 38.8701 87.9612 39.0301C85.1612 39.0901 82.3112 39.1601 79.4512 39.1801Z" fill="#F2F2F2"/>
<path d="M59.3711 107.71C79.6455 107.71 96.0811 106.685 96.0811 105.42C96.0811 104.155 79.6455 103.13 59.3711 103.13C39.0968 103.13 22.6611 104.155 22.6611 105.42C22.6611 106.685 39.0968 107.71 59.3711 107.71Z" fill="#F2F2F2"/>
<path d="M7.5708 17.13L20.5708 16.03C22.1919 15.8881 23.8125 16.3073 25.1615 17.2175C26.5104 18.1277 27.5057 19.4736 27.9808 21.03L40.4408 62.73L38.0008 67.1C37.3741 68.226 37.0647 69.5009 37.1056 70.7889C37.1466 72.0769 37.5363 73.3296 38.2332 74.4135C38.9302 75.4974 39.9082 76.3719 41.0631 76.9436C42.2179 77.5153 43.5063 77.7629 44.7908 77.66L94.6908 73.42" stroke="#BABABA" stroke-linecap="round" stroke-linejoin="round"/>
<path d="M29.8408 27.36L87.8408 22.44C88.4122 22.391 88.9872 22.4713 89.5233 22.6749C90.0594 22.8786 90.5428 23.2003 90.9375 23.6162C91.3323 24.0321 91.6284 24.5316 91.8038 25.0775C91.9792 25.6235 92.0295 26.2019 91.9508 26.77L88.0208 55.14C87.9015 55.9911 87.4993 56.7774 86.879 57.3724C86.2586 57.9673 85.4562 58.3363 84.6008 58.42L40.4408 62.73L29.8408 27.36Z" fill="white" stroke="#BABABA" stroke-linecap="round" stroke-linejoin="round"/>
<path d="M50.3409 87.22C52.9421 87.22 55.0509 85.1113 55.0509 82.51C55.0509 79.9088 52.9421 77.8 50.3409 77.8C47.7396 77.8 45.6309 79.9088 45.6309 82.51C45.6309 85.1113 47.7396 87.22 50.3409 87.22Z" fill="white" stroke="#BABABA" stroke-linecap="round" stroke-linejoin="round"/>
<path d="M83.1412 84.44C85.7424 84.44 87.8512 82.3313 87.8512 79.73C87.8512 77.1288 85.7424 75.02 83.1412 75.02C80.5399 75.02 78.4312 77.1288 78.4312 79.73C78.4312 82.3313 80.5399 84.44 83.1412 84.44Z" fill="white" stroke="#BABABA" stroke-linecap="round" stroke-linejoin="round"/>
<path d="M17.8656 14.9041L5.60961 15.944C4.54752 16.0341 3.75958 16.9682 3.8497 18.0303C3.93982 19.0924 4.87387 19.8803 5.93596 19.7902L18.1919 18.7502C19.254 18.6601 20.042 17.7261 19.9518 16.664C19.8617 15.6019 18.9277 14.8139 17.8656 14.9041Z" fill="#D2D2D2"/>
<path d="M54.2612 49.27C54.5004 47.4449 55.3563 45.7565 56.6869 44.4847C58.0175 43.2129 59.743 42.4342 61.577 42.2777C63.411 42.1213 65.2433 42.5965 66.7701 43.6246C68.297 44.6527 69.4264 46.1718 69.9712 47.93" stroke="#BABABA" stroke-linecap="round" stroke-linejoin="round"/>
<path d="M70.101 38.48C70.7195 38.48 71.221 37.9785 71.221 37.36C71.221 36.7414 70.7195 36.24 70.101 36.24C69.4824 36.24 68.981 36.7414 68.981 37.36C68.981 37.9785 69.4824 38.48 70.101 38.48Z" fill="#BABABA"/>
<path d="M52.351 39.98C52.9695 39.98 53.471 39.4785 53.471 38.86C53.471 38.2414 52.9695 37.74 52.351 37.74C51.7324 37.74 51.231 38.2414 51.231 38.86C51.231 39.4785 51.7324 39.98 52.351 39.98Z" fill="#BABABA"/>
<path d="M20.8008 81.1201V85.4301" stroke="#BABABA" stroke-linecap="round" stroke-linejoin="round"/>
<path d="M18.6509 83.27H22.9509" stroke="#BABABA" stroke-linecap="round" stroke-linejoin="round"/>
<path d="M89.5112 1V5.3" stroke="#BABABA" stroke-linecap="round" stroke-linejoin="round"/>
<path d="M87.3608 3.1499H91.6608" stroke="#BABABA" stroke-linecap="round" stroke-linejoin="round"/>
<path d="M38.6011 13.8501V18.1501" stroke="#BABABA" stroke-linecap="round" stroke-linejoin="round"/>
<path d="M36.4409 16H40.7509" stroke="#BABABA" stroke-linecap="round" stroke-linejoin="round"/>
<path d="M100.241 29.6601C100.805 29.6601 101.261 29.2034 101.261 28.6401C101.261 28.0768 100.805 27.6201 100.241 27.6201C99.6779 27.6201 99.2212 28.0768 99.2212 28.6401C99.2212 29.2034 99.6779 29.6601 100.241 29.6601Z" fill="white" stroke="#BABABA" stroke-linecap="round" stroke-linejoin="round"/>
<path d="M62.1211 20.49C62.6624 20.49 63.1011 20.0513 63.1011 19.51C63.1011 18.9688 62.6624 18.53 62.1211 18.53C61.5799 18.53 61.1411 18.9688 61.1411 19.51C61.1411 20.0513 61.5799 20.49 62.1211 20.49Z" fill="#CFCFCF"/>
<path d="M68.7012 91.6099C69.2424 91.6099 69.6812 91.1711 69.6812 90.6299C69.6812 90.0887 69.2424 89.6499 68.7012 89.6499C68.16 89.6499 67.7212 90.0887 67.7212 90.6299C67.7212 91.1711 68.16 91.6099 68.7012 91.6099Z" fill="#CFCFCF"/>
</svg>
