<svg width="20" height="20" viewBox="0 0 20 20" fill="none" xmlns="http://www.w3.org/2000/svg">
  <path
    d="M9.99974 13.0827C11.7024 13.0827 13.0827 11.7024 13.0827 9.99974C13.0827 8.29704 11.7024 6.91674 9.99974 6.91674C8.29705 6.91674 6.91674 8.29704 6.91674 9.99974C6.91674 11.7024 8.29705 13.0827 9.99974 13.0827Z"
    fill="currentColor" />
  <path fill-rule="evenodd" clip-rule="evenodd"
    d="M1.85669 3.31255C1 4.60729 1 6.40486 1 10C1 13.5951 1 15.3927 1.85669 16.6874C2.23925 17.2656 2.73439 17.7608 3.31255 18.1433C4.60729 19 6.40486 19 10 19C13.5951 19 15.3927 19 16.6874 18.1433C17.2656 17.7608 17.7608 17.2656 18.1433 16.6874C19 15.3927 19 13.5951 19 10C19 6.40486 19 4.60729 18.1433 3.31255C17.7608 2.73439 17.2656 2.23925 16.6874 1.85669C15.3927 1 13.5951 1 10 1C6.40486 1 4.60729 1 3.31255 1.85669C2.73439 2.23925 2.23925 2.73439 1.85669 3.31255ZM15.9379 5.1063C15.9379 5.71095 15.4478 6.20112 14.8431 6.20112C14.2385 6.20112 13.7483 5.71095 13.7483 5.1063C13.7483 4.50164 14.2385 4.01147 14.8431 4.01147C15.4478 4.01147 15.9379 4.50164 15.9379 5.1063ZM14.6592 9.99974C14.6592 12.5731 12.5731 14.6591 9.99974 14.6591C7.42642 14.6591 5.34033 12.5731 5.34033 9.99974C5.34033 7.42642 7.42642 5.34033 9.99974 5.34033C12.5731 5.34033 14.6592 7.42642 14.6592 9.99974Z"
    fill="currentColor" />
</svg>