<svg width="20" height="20" viewBox="0 0 20 20" fill="none" xmlns="http://www.w3.org/2000/svg">
<path d="M8.61377 10H19.307" stroke="#1A1A1A" stroke-width="1.2" stroke-linecap="round" stroke-linejoin="round"/>
<path d="M16.6343 7.32715L19.3071 9.99997L16.6343 12.6728" stroke="#1A1A1A" stroke-width="1.2" stroke-linecap="round" stroke-linejoin="round"/>
<path d="M15.1546 2.96607C13.8559 2.01756 12.32 1.44711 10.717 1.31794C9.11396 1.18877 7.50648 1.50591 6.07266 2.23424C4.63883 2.96256 3.43464 4.07362 2.5935 5.44432C1.75236 6.81501 1.30713 8.39182 1.30713 10C1.30713 11.6082 1.75236 13.185 2.5935 14.5557C3.43464 15.9264 4.63883 17.0375 6.07266 17.7658C7.50648 18.4941 9.11396 18.8113 10.717 18.6821C12.32 18.5529 13.8559 17.9825 15.1546 17.034" stroke="#1A1A1A" stroke-width="1.2" stroke-linecap="round" stroke-linejoin="round"/>
</svg>
