<?xml version="1.0" encoding="UTF-8"?>
<svg xmlns="http://www.w3.org/2000/svg" xmlns:xlink="http://www.w3.org/1999/xlink" width="15020px" height="15020px" viewBox="0 0 15020 15020" version="1.1">
<g id="surface1">
<path style=" stroke:none;fill-rule:nonzero;fill:rgb(0%,0%,0%);fill-opacity:1;" d="M 10639.167969 5006.667969 C 10639.167969 2932.835938 9238.191406 1251.667969 7510 1251.667969 C 5781.808594 1251.667969 4380.832031 2932.835938 4380.832031 5006.667969 C 4380.832031 7080.496094 5781.808594 8761.667969 7510 8761.667969 C 9238.191406 8761.667969 10639.167969 7080.496094 10639.167969 5006.667969 Z M 10639.167969 5006.667969 "/>
<path style=" stroke:none;fill-rule:nonzero;fill:rgb(0%,0%,0%);fill-opacity:1;" d="M 13643.167969 11953.417969 C 13079.917969 10826.917969 12016 9888.167969 10639.167969 9324.917969 C 10263.667969 9199.75 9825.582031 9199.75 9512.667969 9387.5 C 8886.832031 9763 8261 9950.75 7510 9950.75 C 6759 9950.75 6133.167969 9763 5507.332031 9387.5 C 5194.417969 9262.332031 4756.332031 9199.75 4380.832031 9387.5 C 3004 9950.75 1940.082031 10889.5 1376.832031 12016 C 938.75 12829.582031 1627.167969 13768.332031 2565.917969 13768.332031 L 12454.082031 13768.332031 C 13392.832031 13768.332031 14081.25 12829.582031 13643.167969 11953.417969 Z M 13643.167969 11953.417969 "/>
</g>
</svg>
