<svg width="73" height="15" viewBox="0 0 73 15" fill="none" xmlns="http://www.w3.org/2000/svg">
<path fill-rule="evenodd" clip-rule="evenodd" d="M42.1221 8.2327H40.7208C40.5825 8.22528 40.4736 8.10962 40.4718 7.96828V0.596734C40.4867 0.456773 40.6041 0.35179 40.7419 0.355252H42.0462C42.165 0.359144 42.2667 0.443295 42.2951 0.561147V1.68849H42.3225C42.7158 0.680617 43.2671 0.200195 44.2379 0.200195C44.8676 0.200195 45.4824 0.43278 45.8794 1.06826C46.2466 1.65798 46.2466 2.6506 46.2466 3.36361V8.00132C46.226 8.13664 46.1106 8.23553 45.9765 8.2327H44.5627C44.4359 8.22709 44.3311 8.12973 44.3138 8.00132V3.99908C44.3138 3.9366 44.3143 3.87187 44.3149 3.80562V3.80501C44.3217 3.01696 44.3303 2.01385 43.4339 2.01385C43.073 2.03089 42.7549 2.26132 42.6199 2.60357C42.4233 3.05349 42.3972 3.50341 42.3972 4.00163V7.96828C42.3918 8.1179 42.27 8.23551 42.1234 8.2327H42.1221ZM36.1856 0.210365C38.2727 0.210365 39.4015 2.04054 39.4015 4.36639C39.4015 6.61471 38.157 8.39787 36.1856 8.39787C34.1383 8.39787 33.0232 6.56769 33.0232 4.28886C33.0232 2.01004 34.152 0.210365 36.1856 0.210365ZM36.1993 1.71517C35.1626 1.71517 35.0966 3.15644 35.0966 4.05628V4.0861C35.0965 4.99783 35.0962 6.8778 36.1856 6.8778C37.287 6.8778 37.3281 5.32723 37.3281 4.38164C37.3281 3.76141 37.302 3.01663 37.1178 2.42818C36.9597 1.9198 36.6448 1.71517 36.1993 1.71517ZM10.2043 8.24797H8.79918C8.66884 8.24098 8.56303 8.13779 8.55027 8.00514V0.63359C8.555 0.485871 8.67438 0.369042 8.8191 0.370502H10.1296C10.2639 0.378067 10.3711 0.487563 10.3785 0.624693V1.58681H10.4047C10.7457 0.655196 11.3891 0.2218 12.2553 0.2218C13.1215 0.2218 13.6853 0.655196 14.0798 1.58681C14.3432 0.869865 14.9647 0.353692 15.7057 0.236484C16.4467 0.119277 17.192 0.419253 17.6554 1.02123C18.0377 1.55193 18.0255 2.29106 18.014 2.98543V2.98545V2.98547V2.98549V2.98551V2.98553V2.98555V2.98557C18.012 3.10267 18.0101 3.21849 18.0101 3.33183V7.98226C18.0088 8.05429 17.9795 8.12281 17.9285 8.17267C17.8776 8.22252 17.8093 8.24959 17.7388 8.24797H16.3337C16.1955 8.24053 16.0866 8.12487 16.0848 7.98353V4.07661C16.0848 4.01744 16.0858 3.94133 16.0868 3.85486V3.85483V3.85481V3.85478V3.85476V3.85473V3.85471V3.85468C16.0914 3.48795 16.0983 2.93491 16.045 2.69635C15.9404 2.20068 15.6256 2.06087 15.2186 2.06087C14.8456 2.07251 14.5152 2.30994 14.3785 2.66458C14.2445 3.01153 14.2456 3.56995 14.2465 3.98376L14.2466 4.07661V7.98226C14.2453 8.05406 14.2161 8.12239 14.1654 8.17221C14.1148 8.22203 14.0468 8.24925 13.9765 8.24797H12.5677C12.4297 8.23992 12.3212 8.12462 12.3188 7.98353V4.07661C12.3188 3.99655 12.32 3.9128 12.3212 3.82685C12.3324 3.02993 12.3463 2.04308 11.4476 2.04308C10.4755 2.04308 10.4762 3.16625 10.4768 4.01548L10.4768 4.07661V7.98226C10.4755 8.05429 10.4462 8.12281 10.3953 8.17267C10.3443 8.22252 10.2761 8.24959 10.2055 8.24797H10.2043ZM6.02134 8.33813C6.12808 8.39952 6.26109 8.38579 6.35364 8.30381L6.36484 8.30636C6.64486 8.05089 7.15513 7.59843 7.44262 7.35314C7.55214 7.25782 7.53223 7.09895 7.44262 6.97185C7.41527 6.93339 7.38774 6.8957 7.36037 6.85823C7.12995 6.54275 6.9112 6.24325 6.9112 5.64116V3.40555C6.9112 3.33334 6.91155 3.26157 6.9119 3.19029C6.91617 2.32697 6.92007 1.53699 6.28892 0.933537C5.75127 0.404819 4.85768 0.219259 4.17318 0.219259C2.83528 0.219259 1.34182 0.728913 1.02943 2.41674C1.01648 2.48505 1.03152 2.5558 1.07103 2.61248C1.11054 2.66916 1.17108 2.70683 1.23852 2.71669L2.59011 2.86793C2.7221 2.84749 2.82419 2.73906 2.83902 2.60357C2.956 2.02275 3.43391 1.74187 3.97032 1.74187C4.26154 1.74187 4.58761 1.8499 4.75936 2.11426C4.93563 2.37971 4.93289 2.73196 4.93043 3.04836C4.93015 3.08493 4.92987 3.12102 4.92987 3.15644V3.342C4.80225 3.35672 4.6685 3.37067 4.53074 3.38503L4.53067 3.38504L4.53056 3.38505L4.53045 3.38506L4.53033 3.38507L4.53025 3.38508L4.53019 3.38509L4.53015 3.38509L4.53012 3.38509L4.53012 3.38509C3.78806 3.46245 2.92973 3.55193 2.28643 3.84021C1.41525 4.22913 0.792969 5.02093 0.792969 6.1864C0.792969 7.6785 1.71394 8.42455 2.89751 8.42455C3.89689 8.42455 4.44325 8.18434 5.21611 7.3811C5.25338 7.4365 5.28699 7.48771 5.31871 7.53603L5.31871 7.53603C5.50308 7.8169 5.62313 7.99979 6.02134 8.33813ZM4.93613 4.8732L4.93609 4.8036V4.49476C3.91929 4.49476 2.84524 4.71718 2.84524 5.93984C2.84524 6.56261 3.16011 6.98202 3.699 6.98202C4.09477 6.98202 4.44947 6.73292 4.67349 6.32875C4.93704 5.85013 4.93663 5.40185 4.93613 4.8732V4.8732ZM25.8695 6.96677C25.8421 6.92825 25.8145 6.8905 25.7871 6.85297C25.5567 6.53757 25.3381 6.23819 25.3381 5.63735V3.40046C25.3381 3.32427 25.3385 3.24857 25.3389 3.17345V3.17317V3.1729V3.17263V3.17235V3.17209V3.17182V3.17155C25.3438 2.31265 25.3482 1.52878 24.7158 0.928452C24.1769 0.399734 23.2833 0.214174 22.6 0.214174C21.2621 0.214174 19.7687 0.722557 19.4551 2.41166C19.4417 2.48035 19.4567 2.55161 19.4966 2.60862C19.5364 2.66564 19.5975 2.70335 19.6654 2.71287L21.0282 2.86285C21.16 2.842 21.2618 2.73378 21.2771 2.59849C21.3953 2.01766 21.8707 1.73678 22.4071 1.73678C22.6971 1.73678 23.0294 1.84608 23.1962 2.11044C23.3737 2.3749 23.3709 2.72729 23.3685 3.04381C23.3682 3.0802 23.3679 3.11611 23.3679 3.15135V3.3331C23.2427 3.34735 23.1116 3.36088 22.9766 3.37481C22.2323 3.4516 21.3692 3.54066 20.7245 3.83004C19.8434 4.21896 19.2248 5.01076 19.2248 6.1775C19.2248 7.66833 20.1458 8.41438 21.3294 8.41438C22.325 8.41438 22.8751 8.17417 23.6467 7.37093C23.6834 7.42542 23.7165 7.47578 23.7477 7.52324L23.7478 7.52344C23.9348 7.80796 24.0533 7.98817 24.4532 8.32796C24.5598 8.38893 24.6924 8.37575 24.7855 8.29491C25.0655 8.04072 25.5758 7.58699 25.8633 7.3417C25.984 7.254 25.9641 7.09894 25.8695 6.96677ZM23.1066 6.32239C22.8838 6.72528 22.5279 6.97439 22.1333 6.97439C21.5944 6.97439 21.2796 6.55498 21.2796 5.93348C21.2796 4.70955 22.3536 4.4884 23.3704 4.4884V4.79851L23.3704 4.8555C23.3708 5.39076 23.371 5.84116 23.1066 6.32239ZM27.0593 1.65799V0.608176C27.056 0.536304 27.0827 0.466378 27.1328 0.415743C27.1828 0.365109 27.2515 0.338511 27.3219 0.342547H31.9429C32.0132 0.340115 32.0814 0.367108 32.1316 0.417266C32.1819 0.467425 32.21 0.536392 32.2093 0.608176V1.51183C32.2093 1.66307 32.0848 1.86134 31.862 2.17399L29.4675 5.66404C30.3561 5.64244 31.2957 5.77843 32.1035 6.24233C32.2526 6.32355 32.3477 6.48027 32.3524 6.65285V7.78145C32.3524 7.93651 32.1868 8.11572 32.0114 8.02294C30.4785 7.21835 28.659 7.22167 27.129 8.03183C26.9684 8.11953 26.8004 7.94287 26.8004 7.78781V6.71385C26.7857 6.46069 26.8455 6.20884 26.9722 5.99068L29.7463 1.92362H27.3269C27.2564 1.9264 27.1879 1.89957 27.1373 1.84937C27.0868 1.79917 27.0586 1.73 27.0593 1.65799ZM51.4837 1.27924C51.8369 0.961166 52.2405 0.706739 52.6772 0.526832C53.0898 0.358891 53.5299 0.272628 53.974 0.27264C54.4155 0.264249 54.8534 0.354473 55.2571 0.536999C55.6376 0.715135 55.9709 0.983563 56.2291 1.31991C56.5104 1.69252 56.7183 2.11721 56.8415 2.57053C56.9907 3.1078 57.0628 3.66435 57.0555 4.22277C57.0623 4.79308 56.9851 5.36119 56.8265 5.90806C56.6938 6.37211 56.4763 6.80636 56.1856 7.18791C55.9156 7.53482 55.5728 7.8154 55.1825 8.00895C54.7723 8.20338 54.3241 8.29946 53.872 8.28983C53.027 8.30411 52.2092 7.9855 51.5882 7.40016V10.9283C51.6001 11.0114 51.5728 11.0952 51.5147 11.1545C51.4566 11.2139 51.3745 11.2417 51.2932 11.2296H50.4221C50.3408 11.2417 50.2586 11.2139 50.2005 11.1545C50.1425 11.0952 50.1152 11.0114 50.1271 10.9283V0.797545C50.1158 0.714648 50.1432 0.631127 50.2011 0.571942C50.2591 0.512758 50.3409 0.484764 50.4221 0.496329H51.0705C51.1551 0.488246 51.2392 0.515857 51.3034 0.572749C51.3676 0.62964 51.4062 0.710861 51.4102 0.797545L51.4837 1.27924ZM53.5621 1.47496C52.8475 1.48072 52.1542 1.72386 51.587 2.16763V6.36179C52.2159 6.84475 52.8643 7.08581 53.5322 7.08496C54.8879 7.08496 55.5658 6.15293 55.5658 4.28886C55.5658 2.42479 54.8979 1.4864 53.5621 1.47369V1.47496ZM58.8962 1.84608L59.007 1.80796C59.708 1.58746 60.4366 1.47187 61.17 1.4648C61.7599 1.46564 62.1727 1.57622 62.4084 1.79652C62.644 2.01682 62.7618 2.3981 62.7618 2.94038V3.92918C62.1548 3.77015 61.5315 3.68483 60.9049 3.67499C60.0404 3.67414 59.3526 3.89232 58.8415 4.32953C58.3304 4.76674 58.0748 5.35138 58.0748 6.08345C58.0765 6.76553 58.2839 7.30992 58.6971 7.71663C59.1103 8.12334 59.6703 8.32669 60.3772 8.32669C60.8144 8.32483 61.2472 8.23859 61.6529 8.0725C62.0808 7.90191 62.4769 7.65775 62.824 7.35059L62.8987 7.84754C62.9024 7.93008 62.9392 8.00744 63.0003 8.06151C63.0615 8.11558 63.1418 8.14161 63.2223 8.1335H63.857C63.9382 8.14507 64.02 8.11707 64.0779 8.05789C64.1359 7.99871 64.1633 7.91518 64.152 7.83229V2.69C64.1511 1.86642 63.9296 1.25933 63.4874 0.868719C63.0452 0.478112 62.3573 0.282808 61.4239 0.282808C60.9594 0.282808 60.4958 0.325385 60.0387 0.409904C59.6398 0.474999 59.2494 0.586289 58.8751 0.741623C58.7845 0.772913 58.7035 0.827652 58.6398 0.900493C58.5915 0.989997 58.5707 1.09231 58.5801 1.19408V1.59698C58.5801 1.77872 58.6473 1.86896 58.7718 1.86896C58.8142 1.86831 58.8562 1.86058 58.8962 1.84608ZM61.7487 7.00489C61.4233 7.12906 61.0793 7.19485 60.7319 7.19935C60.3486 7.2002 60.0537 7.09767 59.8471 6.89178C59.6405 6.68588 59.5372 6.39229 59.5372 6.01101C59.5363 5.13743 60.0918 4.70065 61.2036 4.70065C61.4671 4.70121 61.7302 4.71904 61.9914 4.75403C62.2517 4.78753 62.5101 4.83504 62.7655 4.89638V6.43296C62.4568 6.67488 62.114 6.86771 61.7487 7.00489ZM68.0263 10.9576C68.3747 10.6559 68.6822 10.159 68.9485 9.46674L72.1918 1.03776C72.2454 0.923588 72.2803 0.801227 72.2951 0.675536C72.2951 0.556066 72.2266 0.49506 72.0885 0.49506H71.2634C71.15 0.483959 71.0362 0.51024 70.9385 0.570046C70.8553 0.664975 70.7952 0.77863 70.763 0.901766L68.7718 6.74181L66.707 0.901766C66.6749 0.77863 66.6148 0.664975 66.5316 0.570046C66.4339 0.51024 66.3201 0.483959 66.2067 0.49506H65.3219C65.185 0.49506 65.1165 0.556066 65.1165 0.675536C65.1307 0.801209 65.1652 0.923611 65.2186 1.03776L68.0586 8.20722L67.7786 8.9698C67.6118 9.45191 67.4251 9.78321 67.2186 9.96369C66.9697 10.1584 66.6602 10.2546 66.3474 10.2344C66.2144 10.2372 66.0814 10.227 65.9504 10.2039C65.8774 10.1879 65.8033 10.1781 65.7288 10.1747C65.5807 10.1747 65.5073 10.27 65.5073 10.4606V10.8521C65.4991 10.96 65.5248 11.0677 65.5807 11.1597C65.642 11.2327 65.7251 11.2832 65.8172 11.3033C66.0912 11.3771 66.3738 11.4126 66.6573 11.4088C67.2215 11.4096 67.6778 11.2592 68.0263 10.9576Z" fill="#232F3E"/>
<path fill-rule="evenodd" clip-rule="evenodd" d="M29.3706 12.9354C29.6904 12.1233 30.4023 10.3033 30.0638 9.86223H30.0663C29.7293 9.42025 27.8375 9.65219 26.9866 9.75652L26.9848 9.75674C26.7259 9.78852 26.6861 9.55847 26.9188 9.39198C28.4297 8.30785 30.9051 8.61797 31.1926 8.984C31.4801 9.35004 31.1142 11.8843 29.6992 13.0943C29.4814 13.2798 29.2735 13.1807 29.3706 12.9354ZM19.2038 14.1886C22.4944 14.1886 26.3264 13.1273 28.9661 11.1383V11.1421C29.4029 10.8066 29.0283 10.3134 28.5828 10.5066C25.7015 11.7477 22.6085 12.3956 19.4814 12.413C15.1428 12.413 10.9462 11.198 7.55107 9.181C7.25362 9.00433 7.03209 9.31572 7.281 9.54322C10.5496 12.5548 14.8016 14.2115 19.2038 14.1886Z" fill="#FF9900"/>
</svg>
