<svg width="23" height="10" viewBox="0 0 23 10" fill="none" xmlns="http://www.w3.org/2000/svg">
<path fill-rule="evenodd" clip-rule="evenodd" d="M4.53338 1.95597C4.28055 2.25882 3.87603 2.49768 3.47152 2.46356C3.42095 2.05408 3.619 1.61901 3.85075 1.35029C4.10358 1.03891 4.54602 0.81711 4.90419 0.800049C4.94632 1.22659 4.78199 1.6446 4.53338 1.95597ZM4.89998 2.5446C4.5436 2.52384 4.21843 2.65309 3.95577 2.75749C3.78675 2.82467 3.64362 2.88157 3.53473 2.88157C3.41253 2.88157 3.26348 2.82163 3.09615 2.75434C2.87688 2.66616 2.62619 2.56535 2.36331 2.57019C1.76074 2.57872 1.20032 2.92422 0.892714 3.47446C0.260654 4.57493 0.728379 6.20432 1.33937 7.10005C1.63855 7.54365 1.99671 8.02991 2.46865 8.01285C2.67628 8.00491 2.82563 7.94076 2.98019 7.87437C3.15814 7.79794 3.343 7.71853 3.63164 7.71853C3.91028 7.71853 4.08705 7.79587 4.25674 7.8701C4.41809 7.94069 4.57304 8.00847 4.80306 8.00431C5.29185 7.99578 5.59946 7.56071 5.89863 7.11711C6.22149 6.641 6.36337 6.17634 6.3849 6.10583L6.38742 6.09768C6.38691 6.09716 6.38292 6.09531 6.37589 6.09205L6.37588 6.09205C6.26795 6.04203 5.44303 5.65975 5.43512 4.63465C5.42718 3.77422 6.08943 3.33827 6.19368 3.26965C6.20002 3.26547 6.2043 3.26266 6.20623 3.26119C5.78486 2.62991 5.12752 2.56166 4.89998 2.5446ZM8.2836 7.9574V1.30763H10.7486C12.0212 1.30763 12.9103 2.19484 12.9103 3.49152C12.9103 4.7882 12.0043 5.68394 10.7149 5.68394H9.30332V7.9574H8.2836ZM9.30333 2.17777H10.479C11.3638 2.17777 11.8695 2.6555 11.8695 3.49578C11.8695 4.33607 11.3638 4.81806 10.4747 4.81806H9.30333V2.17777ZM16.2771 7.15976C16.0074 7.68014 15.4132 8.00858 14.7727 8.00858C13.8247 8.00858 13.1631 7.43701 13.1631 6.5754C13.1631 5.72232 13.8036 5.2318 14.9876 5.15929L16.2602 5.08251V4.71569C16.2602 4.17398 15.9105 3.87967 15.2868 3.87967C14.7727 3.87967 14.3977 4.14839 14.3219 4.55787H13.4033C13.4328 3.69626 14.2334 3.06924 15.3163 3.06924C16.4835 3.06924 17.242 3.68773 17.242 4.64744V7.95739H16.2981V7.15976H16.2771ZM15.0466 7.21948C14.5031 7.21948 14.1575 6.95503 14.1575 6.54981C14.1575 6.1318 14.4904 5.88867 15.1267 5.85029L16.2602 5.77777V6.15313C16.2602 6.77588 15.7377 7.21948 15.0466 7.21948ZM20.3728 8.21758C19.9641 9.38204 19.4963 9.76592 18.5019 9.76592C18.4261 9.76592 18.1732 9.75739 18.1142 9.74033V8.9427C18.1775 8.95123 18.3334 8.95976 18.4134 8.95976C18.8643 8.95976 19.1171 8.76782 19.273 8.26877L19.3657 7.97446L17.6381 3.13322H18.7042L19.9051 7.06166H19.9261L21.1271 3.13322H22.1636L20.3728 8.21758Z" fill="black"/>
</svg>
