<svg width="25" height="10" viewBox="0 0 25 10" fill="none" xmlns="http://www.w3.org/2000/svg">
<path fill-rule="evenodd" clip-rule="evenodd" d="M11.4887 7.47109V4.76443V4.76389H12.9512C13.5541 4.76425 14.0609 4.57456 14.4714 4.19483C14.8863 3.83443 15.1182 3.31626 15.1064 2.77616C15.1146 2.23905 14.8831 1.72472 14.4714 1.36549C14.0645 0.98368 13.5172 0.775358 12.9512 0.786827H10.6035V7.47109H11.4887ZM11.4887 3.94309V1.60976V1.60923H12.9732C13.304 1.60021 13.623 1.72936 13.849 1.96389C14.0764 2.17838 14.2048 2.473 14.2048 2.78069C14.2048 3.08839 14.0764 3.383 13.849 3.59749C13.6202 3.82709 13.3022 3.95255 12.9732 3.94309H11.4887Z" fill="#5F6368"/>
<path fill-rule="evenodd" clip-rule="evenodd" d="M18.6965 3.25709C18.3179 2.91789 17.8014 2.74829 17.1471 2.74829C16.3067 2.74829 15.672 3.04696 15.2432 3.64429L16.0228 4.12056C16.3109 3.71594 16.7022 3.51362 17.1966 3.51362C17.5119 3.51004 17.8169 3.62183 18.051 3.82669C18.2844 4.01387 18.4187 4.29294 18.4166 4.58669V4.78296C18.0765 4.59629 17.6436 4.50296 17.118 4.50296C16.5022 4.50367 16.01 4.64376 15.6412 4.92322C15.2725 5.20269 15.0881 5.57905 15.0881 6.05229C15.0801 6.48321 15.2728 6.89468 15.6126 7.17229C15.9623 7.47096 16.3968 7.62029 16.9162 7.62029C17.5247 7.62029 18.0122 7.35896 18.3787 6.83629H18.4172V7.47096H19.2639V4.65229C19.2643 4.06136 19.0751 3.59629 18.6965 3.25709ZM16.2955 6.63096C16.1101 6.5013 16.0007 6.29269 16.002 6.07096C16.002 5.82189 16.1224 5.61443 16.3648 5.44376C16.6049 5.27558 16.9047 5.19149 17.2643 5.19149C17.758 5.19149 18.1429 5.29816 18.4189 5.51149C18.4189 5.87202 18.2723 6.18616 17.979 6.45389C17.7149 6.71013 17.3569 6.85435 16.9834 6.85496C16.7343 6.85948 16.4913 6.78034 16.2955 6.63096Z" fill="#5F6368"/>
<path fill-rule="evenodd" clip-rule="evenodd" d="M24.1244 2.89771L21.1687 9.48704H20.2549L21.3518 7.18144L19.4082 2.89771H20.3704L21.7751 6.18304H21.7944L23.1606 2.89771L24.1244 2.89771Z" fill="#5F6368"/>
<path fill-rule="evenodd" clip-rule="evenodd" d="M7.91267 4.18095C7.91301 3.91927 7.8902 3.65804 7.8445 3.40015H4.11133V4.87908H6.24952C6.1611 5.35639 5.8755 5.77794 5.4589 6.04601V7.00601H6.73499C7.48218 6.33775 7.91267 5.34948 7.91267 4.18095Z" fill="#4285F4"/>
<path fill-rule="evenodd" clip-rule="evenodd" d="M4.11111 7.93344C5.17938 7.93344 6.07886 7.59317 6.73478 7.0065L5.45868 6.0465C5.10351 6.2801 4.64607 6.41344 4.11111 6.41344C3.07858 6.41344 2.20219 5.73824 1.8888 4.82837H0.574219V5.8177C1.24616 7.11475 2.61466 7.93337 4.11111 7.93344Z" fill="#34A853"/>
<path fill-rule="evenodd" clip-rule="evenodd" d="M1.88845 4.82834C1.72277 4.35156 1.72277 3.83525 1.88845 3.35847V2.36914H0.573863C0.0118372 3.45401 0.0118372 4.73281 0.573863 5.81767L1.88845 4.82834Z" fill="#FBBC04"/>
<path fill-rule="evenodd" clip-rule="evenodd" d="M4.11111 1.77343C4.67564 1.76448 5.22113 1.97139 5.62967 2.34943V2.34943L6.75952 1.25343C6.04308 0.600666 5.09395 0.24229 4.11111 0.253426C2.61466 0.253492 1.24616 1.07212 0.574219 2.36916L1.8888 3.35849C2.20219 2.44863 3.07858 1.77343 4.11111 1.77343Z" fill="#EA4335"/>
</svg>
