<svg width="62" height="43" viewBox="0 0 62 43" fill="none" xmlns="http://www.w3.org/2000/svg">
<path fill-rule="evenodd" clip-rule="evenodd" d="M27.2906 21.3714L27.6563 19.0392L26.8417 19.0201H22.9517L25.6551 1.8093C25.6635 1.75719 25.6907 1.70881 25.7305 1.67439C25.7705 1.63997 25.8214 1.62109 25.8747 1.62109H32.4338C34.6115 1.62109 36.1143 2.07598 36.8987 2.97396C37.2666 3.39522 37.5008 3.83555 37.6143 4.31994C37.7331 4.82832 37.7351 5.43562 37.6192 6.17646L37.6107 6.23035V6.7051L37.9786 6.91435C38.2883 7.07935 38.5345 7.26815 38.7233 7.48429C39.0379 7.84458 39.2414 8.30242 39.3274 8.84502C39.4163 9.40316 39.3869 10.0675 39.2414 10.8195C39.0735 11.6845 38.8022 12.4379 38.4357 13.0543C38.0988 13.6222 37.6695 14.0934 37.1596 14.4584C36.6729 14.8054 36.0947 15.0687 35.4409 15.2372C34.8072 15.4028 34.0848 15.4864 33.2925 15.4864H32.7821C32.4172 15.4864 32.0627 15.6184 31.7843 15.855C31.5052 16.0965 31.3207 16.4265 31.2641 16.7874L31.2255 16.9974L30.5793 21.1083L30.5501 21.2591C30.5423 21.3069 30.529 21.3307 30.5094 21.3469C30.492 21.3616 30.4669 21.3714 30.4424 21.3714H27.2906Z" fill="#28356A"/>
<path fill-rule="evenodd" clip-rule="evenodd" d="M38.3271 6.28516C38.3077 6.41083 38.2852 6.53925 38.2601 6.67121C37.3952 11.1304 34.4357 12.6709 30.6562 12.6709H28.7317C28.2695 12.6709 27.8799 13.0078 27.808 13.4656L26.5436 21.5181C26.4968 21.8188 26.7276 22.0896 27.0296 22.0896H30.4429C30.847 22.0896 31.1903 21.7948 31.254 21.3946L31.2875 21.2205L31.9301 17.1258L31.9715 16.9012C32.0343 16.4996 32.3785 16.2046 32.7826 16.2046H33.293C36.5999 16.2046 39.1888 14.8566 39.9454 10.9556C40.2614 9.326 40.0978 7.96527 39.2614 7.0083C39.0084 6.71979 38.6944 6.48025 38.3271 6.28516Z" fill="#298FC2"/>
<path fill-rule="evenodd" clip-rule="evenodd" d="M37.422 5.92304C37.2898 5.8843 37.1535 5.84929 37.0136 5.81763C36.873 5.78675 36.729 5.75942 36.5807 5.73542C36.0619 5.65125 35.4932 5.61133 34.8843 5.61133H29.7432C29.6165 5.61133 29.4962 5.64004 29.3887 5.69196C29.1515 5.80642 28.9754 6.0318 28.9327 6.30772L27.839 13.263L27.8076 13.4658C27.8795 13.0079 28.2691 12.671 28.7314 12.671H30.6558C34.4353 12.671 37.3948 11.1298 38.2597 6.67136C38.2856 6.53939 38.3073 6.41097 38.3267 6.2853C38.1079 6.16868 37.8709 6.06897 37.6157 5.98401C37.5526 5.96297 37.4876 5.94271 37.422 5.92304Z" fill="#22284F"/>
<path fill-rule="evenodd" clip-rule="evenodd" d="M28.9328 6.30765C28.9755 6.03173 29.1516 5.80635 29.3888 5.69268C29.4971 5.64056 29.6166 5.61185 29.7433 5.61185H34.8844C35.4934 5.61185 36.062 5.65197 36.5808 5.73614C36.7291 5.75994 36.8731 5.78747 37.0137 5.81835C37.1536 5.84981 37.2899 5.88502 37.4221 5.92356C37.4877 5.94323 37.5528 5.96368 37.6164 5.98394C37.8716 6.0689 38.1088 6.1694 38.3276 6.28523C38.585 4.63737 38.3255 3.51539 37.4382 2.49942C36.4598 1.38078 34.6942 0.9021 32.4348 0.9021H25.8755C25.414 0.9021 25.0203 1.23899 24.949 1.69761L22.217 19.0854C22.1631 19.4294 22.4273 19.7397 22.7728 19.7397H26.8223L28.9328 6.30765Z" fill="#28356A"/>
<path fill-rule="evenodd" clip-rule="evenodd" d="M7.96484 26.105H3.18243C2.85512 26.105 2.57679 26.3437 2.52567 26.6682L0.591429 38.9811C0.553038 39.2242 0.740487 39.443 0.985915 39.443H3.269C3.5963 39.443 3.87464 39.2045 3.92576 38.8794L4.44737 35.5583C4.49771 35.2332 4.77663 34.9945 5.10334 34.9945H6.61724C9.76745 34.9945 11.5855 33.4638 12.0605 30.4308C12.2744 29.1037 12.0695 28.0612 11.4506 27.331C10.7709 26.5292 9.56531 26.105 7.96484 26.105ZM8.51629 30.6021C8.2548 32.3251 6.94363 32.3251 5.67595 32.3251H4.95416L5.46049 29.1073C5.49065 28.9128 5.65832 28.7696 5.85419 28.7696H6.18502C7.04862 28.7696 7.86325 28.7696 8.28418 29.2638C8.53529 29.5586 8.61207 29.9968 8.51629 30.6021Z" fill="#28356A"/>
<path fill-rule="evenodd" clip-rule="evenodd" d="M22.3821 30.4536H20.092C19.8969 30.4536 19.7283 30.5968 19.6983 30.7913L19.5968 31.4344L19.4368 31.2014C18.9411 30.4788 17.8354 30.2373 16.732 30.2373C14.2012 30.2373 12.0397 32.1619 11.6188 34.8615C11.4 36.2081 11.711 37.4958 12.472 38.3938C13.1699 39.2194 14.1684 39.5636 15.3564 39.5636C17.3956 39.5636 18.5262 38.2471 18.5262 38.2471L18.4242 38.8861C18.3858 39.1303 18.5732 39.3494 18.8173 39.3494H20.88C21.2081 39.3494 21.485 39.1107 21.5368 38.7856L22.7745 30.9156C22.8136 30.6733 22.6268 30.4536 22.3821 30.4536ZM19.1898 34.929C18.9689 36.2425 17.9305 37.1243 16.606 37.1243C15.9411 37.1243 15.4097 36.9102 15.0683 36.5045C14.7298 36.1015 14.6013 35.5278 14.7088 34.8888C14.9153 33.5865 15.971 32.6758 17.2753 32.6758C17.9256 32.6758 18.4543 32.8929 18.8026 33.3019C19.1514 33.7155 19.2899 34.2927 19.1898 34.929Z" fill="#28356A"/>
<path fill-rule="evenodd" clip-rule="evenodd" d="M34.4031 30.6509H32.1016C31.882 30.6509 31.6758 30.7604 31.5514 30.9437L28.3773 35.6379L27.0318 31.1268C26.9472 30.8446 26.6879 30.6509 26.3941 30.6509H24.1327C23.8577 30.6509 23.667 30.9205 23.7543 31.1803L26.2893 38.6493L23.9061 42.0272C23.7187 42.2933 23.9075 42.6591 24.2313 42.6591H26.5298C26.748 42.6591 26.9521 42.5523 27.0759 42.3727L34.7302 31.2792C34.9135 31.0139 34.7253 30.6509 34.4031 30.6509Z" fill="#28356A"/>
<path fill-rule="evenodd" clip-rule="evenodd" d="M42.075 26.105H37.292C36.9655 26.105 36.6871 26.3437 36.636 26.6682L34.7018 38.9811C34.6634 39.2242 34.8508 39.443 35.0949 39.443H37.5494C37.7772 39.443 37.9723 39.2761 38.0079 39.0485L38.5569 35.5583C38.6073 35.2332 38.8864 34.9945 39.2129 34.9945H40.7262C43.877 34.9945 45.6945 33.4638 46.1701 30.4308C46.3848 29.1037 46.1785 28.0612 45.5596 27.331C44.8805 26.5292 43.6757 26.105 42.075 26.105ZM42.6268 30.6021C42.3659 32.3251 41.0548 32.3251 39.7863 32.3251H39.0655L39.5724 29.1073C39.6024 28.9128 39.7689 28.7696 39.9653 28.7696H40.2962C41.159 28.7696 41.9744 28.7696 42.3953 29.2638C42.6464 29.5586 42.7226 29.9968 42.6268 30.6021Z" fill="#298FC2"/>
<path fill-rule="evenodd" clip-rule="evenodd" d="M56.4894 30.4536H54.2006C54.0042 30.4536 53.8371 30.5968 53.8077 30.7913L53.7063 31.4344L53.5455 31.2014C53.0497 30.4788 51.9448 30.2373 50.8412 30.2373C48.3106 30.2373 46.1499 32.1619 45.729 34.8615C45.5108 36.2081 45.8205 37.4958 46.5812 38.3938C47.2807 39.2194 48.2777 39.5636 49.4658 39.5636C51.5049 39.5636 52.6356 38.2471 52.6356 38.2471L52.5336 38.8861C52.4952 39.1303 52.6824 39.3494 52.9281 39.3494H54.9902C55.3167 39.3494 55.5951 39.1107 55.6462 38.7856L56.8845 30.9156C56.9223 30.6733 56.7348 30.4536 56.4894 30.4536ZM53.2972 34.929C53.0776 36.2425 52.0377 37.1243 50.7132 37.1243C50.0496 37.1243 49.5168 36.9102 49.1754 36.5045C48.8372 36.1015 48.7098 35.5278 48.816 34.8888C49.0238 33.5865 50.0782 32.6758 51.3825 32.6758C52.0328 32.6758 52.5615 32.8929 52.9097 33.3019C53.2599 33.7155 53.3984 34.2927 53.2972 34.929Z" fill="#298FC2"/>
<path fill-rule="evenodd" clip-rule="evenodd" d="M58.9986 26.4434L57.0358 38.9817C56.9974 39.2247 57.1846 39.4436 57.4287 39.4436H59.4021C59.7302 39.4436 60.0083 39.2051 60.0587 38.88L61.9943 26.5677C62.0329 26.3247 61.8454 26.105 61.6014 26.105H59.3917C59.1966 26.1056 59.0288 26.2489 58.9986 26.4434Z" fill="#298FC2"/>
</svg>
