<svg width="81" height="81" viewBox="0 0 81 81" fill="none" xmlns="http://www.w3.org/2000/svg">
<path d="M37.6869 72.4996C32.1051 72.4996 27.5849 72.4996 26.1744 72.4996C25.9291 72.5066 25.6909 72.4156 25.5117 72.2464C25.4309 72.1647 25.367 72.0676 25.3239 71.9606C25.2808 71.8536 25.2593 71.739 25.2608 71.6236C25.2608 71.1172 25.6347 70.7678 26.1994 70.7475C26.335 70.7475 26.473 70.7475 26.6086 70.7475H27.2963H27.61L28.2123 67.456H24.8793C22.894 67.456 21.1748 66.7116 20.0404 65.3646C18.9059 64.0177 18.4466 62.1694 18.7653 60.1767C19.6764 54.4824 20.595 48.6742 21.4057 43.5495C21.9077 40.4268 22.4021 37.3041 22.889 34.1814C23.0329 33.2783 23.1751 32.3744 23.3156 31.4697V31.4064C23.7273 28.7808 24.1515 26.0665 24.6208 23.408C24.8685 22.0836 25.5626 20.8864 26.5855 20.0193C27.6083 19.1522 28.8969 18.6686 30.2328 18.6505C30.5063 18.6505 30.7824 18.6505 31.0585 18.6505H32.7752L32.8505 18.3669C33.5281 15.7996 35.1093 14.2551 37.6769 13.6449L38.0484 13.5563L37.9555 13.1815C37.4786 11.2674 38.0182 9.84699 39.5568 8.96334C40.0462 8.66919 40.6035 8.50944 41.1731 8.5C41.8925 8.51853 42.5879 8.76476 43.1609 9.20388C44.3506 10.0546 44.722 11.2902 44.3656 13.2069L44.3004 13.5639L44.6517 13.6474C47.2143 14.245 48.7955 15.8021 49.4907 18.41L49.5635 18.691H49.8521C50.1558 18.691 50.462 18.691 50.7657 18.6708C51.0694 18.6505 51.3631 18.6505 51.6592 18.6505C51.9948 18.6471 52.3302 18.6666 52.6632 18.7087C55.424 19.0733 57.3591 21.0103 57.8133 23.8891C57.8133 23.8891 62.331 52.3986 63.5709 60.235C63.8821 62.1997 63.4278 64.0329 62.2934 65.3672C61.1589 66.7015 59.4397 67.456 57.4594 67.456H54.1213L54.7262 70.7475H55.04H55.705H56.1292C56.2482 70.7411 56.3673 70.7587 56.4794 70.7993C56.5916 70.84 56.6946 70.9029 56.7823 70.9842C56.87 71.0656 56.9406 71.1639 56.9901 71.2733C57.0396 71.3826 57.0669 71.5009 57.0704 71.621C57.0717 71.7365 57.0502 71.851 57.0071 71.958C56.964 72.0649 56.9002 72.1621 56.8194 72.2439C56.6402 72.4131 56.4021 72.5041 56.1568 72.4971C54.7296 72.4971 53.3073 72.4971 51.8901 72.4971H48.1781C46.0347 72.4971 41.8608 72.4996 37.6869 72.4996ZM41.7956 70.7273H48.3939H52.6456L52.7234 70.4513C53.0999 69.1322 52.0131 66.9674 50.2136 66.3217H50.1884C49.4782 66.0685 48.7453 65.8153 48.0049 65.5773C46.622 65.152 45.7761 64.3114 45.4172 63.0049C45.3574 62.8413 45.2528 62.6983 45.1155 62.5925C44.9781 62.4867 44.8138 62.4225 44.6417 62.4074C43.5106 62.3972 42.3779 62.3922 41.2434 62.3922C40.0638 62.3922 38.8866 62.3922 37.7447 62.4099C37.5673 62.4326 37.3998 62.5052 37.2613 62.6194C37.1229 62.7335 37.019 62.8847 36.9616 63.0555C36.8089 63.6311 36.5125 64.1576 36.1008 64.5848C35.6892 65.0121 35.1759 65.3259 34.6099 65.4963L33.9925 65.7014H33.9624C33.3726 65.8963 32.7627 66.0964 32.1678 66.3268C31.3642 66.6355 30.6788 67.1943 30.2109 67.9221C29.743 68.65 29.5168 69.5092 29.5652 70.3753L29.5827 70.7349H41.7956V70.7273ZM26.9876 65.6634C27.4368 65.6634 27.8057 65.6634 28.1521 65.6786C28.2801 65.6786 28.4031 65.6786 28.5336 65.6786C29.3167 65.6786 30.1499 65.59 30.923 64.9469C31.163 64.7825 31.4298 64.6617 31.7111 64.5899C31.814 64.557 31.9144 64.524 32.0097 64.4886C32.6071 64.2709 33.222 64.0658 33.8168 63.8683L34.0678 63.7822C34.3421 63.7079 34.5913 63.5602 34.7892 63.3547C34.9872 63.1493 35.1264 62.8937 35.1922 62.615L35.2826 62.2656L34.9412 62.1567L34.6777 62.0706C34.502 62.0124 34.3388 61.9592 34.1757 61.9136C32.3388 61.4233 30.6027 60.608 29.0481 59.5058C25.9987 57.3004 24.7136 54.4191 25.2256 50.9453C25.4239 49.5021 25.7046 48.0718 26.0664 46.6613C27.6702 40.6454 30.1072 35.1233 32.2808 30.5151C32.7827 29.4441 32.7652 28.3934 32.7451 27.3806C32.7242 26.8791 32.736 26.3767 32.7802 25.8766L32.8254 25.4538H31.5705C31.4174 25.4538 31.2693 25.4538 31.1238 25.4538C30.957 25.4499 30.7952 25.3953 30.6596 25.2973C30.524 25.1993 30.4207 25.0624 30.3633 24.9044C30.2899 24.7591 30.264 24.5942 30.2892 24.4332C30.3145 24.2722 30.3896 24.1234 30.5038 24.0081C30.6173 23.8693 30.7379 23.7366 30.8652 23.6106C31.0769 23.4156 31.2709 23.2021 31.445 22.9725C31.7412 22.5598 31.9946 22.1395 32.2883 21.6559C32.4163 21.4432 32.5393 21.2204 32.6974 20.985L33.0588 20.4026H30.5817C28.24 20.4026 26.6236 21.8154 26.2572 24.1651C25.6782 27.8786 25.0926 31.5921 24.5003 35.3056L22.8488 45.727C22.0633 50.687 21.2526 55.7914 20.467 60.8148C20.3657 61.4068 20.3934 62.0141 20.5481 62.5943C20.7028 63.1745 20.9809 63.7137 21.363 64.1746C21.7536 64.6357 22.2379 65.0066 22.7832 65.2622C23.3284 65.5177 23.9217 65.652 24.5229 65.6558H25.3035H26.2019L26.9876 65.6634ZM49.5811 25.4589V25.8387C49.5811 26.1248 49.5811 26.4008 49.5811 26.6742C49.5811 27.3274 49.5635 27.9402 49.6011 28.5732C49.6332 29.1328 49.7579 29.6831 49.9701 30.2012C50.4395 31.3152 50.9263 32.4268 51.3982 33.4927C52.1511 35.1891 52.9041 36.9462 53.6069 38.6983C55.3888 43.1824 56.6764 47.0107 57.1683 51.1048C57.5372 54.1988 56.571 56.7054 54.2142 58.7715C52.6581 60.1337 50.7782 61.1211 48.2935 61.8731L47.6962 62.0605L47.2469 62.2023L46.9959 62.8808L47.2469 63.0479C47.3574 63.1188 47.4628 63.1973 47.5682 63.2733C47.8386 63.4937 48.1375 63.676 48.4567 63.8151C48.8382 63.962 49.2272 64.0911 49.6036 64.2151C50.59 64.5392 51.5161 64.8431 52.3117 65.4609C52.5192 65.5969 52.7653 65.6601 53.012 65.6406H54.1163C54.7187 65.6406 55.3186 65.6406 55.9209 65.6406C56.6739 65.6406 57.3139 65.6406 57.9087 65.6229C58.497 65.6162 59.0771 65.4816 59.6091 65.2283C60.1412 64.9749 60.6128 64.6087 60.9919 64.1548C61.3709 63.7008 61.6484 63.1696 61.8054 62.5976C61.9625 62.0256 61.9953 61.4261 61.9018 60.8401C61.322 57.1156 60.7272 53.3557 60.1449 49.7173C60.1449 49.7173 59.5802 46.1574 59.3594 44.7547L58.3781 38.5363C57.61 33.6666 56.8395 28.7976 56.0664 23.9296C55.7703 22.0661 54.4752 20.7343 52.6857 20.4558C52.3656 20.4103 52.0427 20.3891 51.7195 20.3925C51.4685 20.3925 51.2049 20.3925 50.9389 20.4102C50.6728 20.4279 50.3892 20.4305 50.1006 20.4305H49.4957L49.7618 20.9774C49.8245 21.1065 49.8797 21.2306 49.9375 21.3647C50.0624 21.6884 50.2232 21.9967 50.4168 22.2838C50.7451 22.7183 51.0988 23.1325 51.476 23.5245L51.727 23.7777C52.0934 24.1777 52.1787 24.4917 52.0181 24.8588C51.9489 25.0405 51.8219 25.1939 51.6571 25.2952C51.4923 25.3964 51.2988 25.4397 51.107 25.4184H51.0669H50.6778H49.5886L49.5811 25.4589ZM41.1556 40.3618C41.3129 40.373 41.4656 40.4209 41.6014 40.5018C41.7373 40.5826 41.8528 40.6942 41.9386 40.8277C42.3051 41.3341 42.6439 41.8633 42.9426 42.3266C44.3481 44.5851 45.8013 47.0132 46.7575 49.6692C47.0007 50.3691 47.1003 51.1116 47.0502 51.8515C47.0002 52.5914 46.8015 53.3134 46.4663 53.9735C46.1237 54.6857 45.6431 55.3214 45.053 55.8432C44.4629 56.365 43.7752 56.7624 43.0304 57.0118C42.8672 57.065 42.7041 57.1207 42.5485 57.1764L42.0992 57.3359V60.6274L42.4933 60.6097C42.7443 60.6097 42.9952 60.592 43.324 60.592H44.0142H44.712C45.7214 60.6267 46.7299 60.4977 47.6987 60.2096C49.7819 59.5235 51.9428 58.6424 53.642 56.865C54.9697 55.4724 55.5796 53.9608 55.4566 52.3733C55.3578 50.8455 55.1286 49.3292 54.7714 47.8412C53.2655 41.8962 50.8134 36.2652 48.3914 31.0671C48.2308 30.7177 47.7263 30.5303 47.4251 30.5278C45.2767 30.5278 43.1275 30.5236 40.9774 30.5151H40.8695C38.8984 30.5151 36.9273 30.5151 34.9563 30.5151C34.7216 30.4957 34.4872 30.5559 34.2903 30.6862C34.0935 30.8165 33.9453 31.0093 33.8695 31.2342C33.5357 31.9938 33.1843 32.7838 32.8656 33.475C32.3636 34.6143 31.829 35.7841 31.3597 36.9538C29.6856 41.0303 27.9739 45.408 27.093 50.1376C26.4981 53.2873 27.231 55.6876 29.3342 57.4802C30.8401 58.7462 32.5744 59.5058 34.2309 60.1008C35.4858 60.5565 36.7232 60.6071 37.8852 60.6071H38.7662C39.0598 60.6071 39.351 60.6071 39.6446 60.6071H40.2947V57.3688L40.0713 57.2675L40.0136 57.2397C39.9344 57.1955 39.8501 57.1615 39.7626 57.1384C38.9311 56.9333 38.1549 56.5454 37.4892 56.0026C36.8235 55.4598 36.2849 54.7753 35.9119 53.9982C35.5388 53.221 35.3404 52.3703 35.331 51.5069C35.3215 50.6434 35.5012 49.7886 35.8573 49.0033C36.9616 46.4055 38.4274 43.7951 40.4729 40.7897C40.5438 40.6679 40.6429 40.5653 40.7619 40.4908C40.8808 40.4162 41.0159 40.372 41.1556 40.3618ZM40.7013 43.6078C39.3459 45.8207 38.0634 47.912 37.2603 50.287C37.0009 51.0904 37.0046 51.9566 37.2708 52.7577C37.537 53.5588 38.0517 54.2523 38.7386 54.7356C39.4475 55.261 40.3035 55.5456 41.1832 55.5484C42.0378 55.5469 42.8706 55.276 43.565 54.7736C44.2668 54.2928 44.795 53.5953 45.0702 52.7858C45.3454 51.9763 45.3527 51.0985 45.091 50.2845C44.3079 47.9526 43.058 45.9042 41.7328 43.7369L41.1807 42.8254L40.7013 43.6078ZM34.5723 28.6997H47.7715V25.4918H34.5723V28.6997ZM41.1756 15.3261C40.2847 15.3261 39.3861 15.3261 38.5077 15.359C37.4953 15.3903 36.5308 15.8012 35.8026 16.5114C35.0744 17.2217 34.6348 18.1803 34.5698 19.1999C34.4995 20.7849 34.1983 21.9851 33.5935 23.0687L33.2797 23.6334H49.0917L48.7779 23.0687C48.1479 21.8958 47.8135 20.5846 47.8041 19.2506C47.7584 18.2156 47.3238 17.2371 46.5886 16.5138C45.8534 15.7905 44.8728 15.3767 43.8461 15.3565C42.9501 15.3362 42.0516 15.3261 41.1756 15.3261ZM41.1756 10.2901C40.744 10.2945 40.3316 10.4711 40.0286 10.7813C39.8775 10.9339 39.7578 11.1151 39.6764 11.3146C39.595 11.514 39.5535 11.7277 39.5543 11.9434C39.5602 12.3738 39.733 12.7846 40.0356 13.088C40.3382 13.3914 40.7465 13.5631 41.1731 13.5664C41.5976 13.5595 42.0032 13.3882 42.3059 13.088C42.6087 12.7877 42.7854 12.3816 42.7995 11.9536C42.7999 11.5251 42.6361 11.113 42.3424 10.8035C42.0487 10.4939 41.6477 10.3109 41.2233 10.2926L41.1756 10.2901Z" fill="#1A1A1A"/>
</svg>
