<svg width="81" height="81" viewBox="0 0 81 81" fill="none" xmlns="http://www.w3.org/2000/svg">
<path d="M50.3426 69.5H46.0225H26.8429C24.7093 69.5 23.2372 68.4859 22.4655 66.495C22.2864 66.0298 21.9602 66.0298 21.6984 66.0135C21.4986 66.0135 21.2965 66.0135 21.0966 66.0135H20.6373C20.0468 66.0267 19.4563 65.9925 18.8712 65.9112C17.8872 65.7414 16.9943 65.2244 16.3507 64.4518C15.7071 63.6791 15.3543 62.7006 15.3549 61.6898C15.3343 59.5035 15.3182 56.6171 15.3549 53.6819C15.4009 50.2047 17.9204 47.0834 21.3493 46.2647L21.7856 46.167L22.2243 46.0693V42.2852C22.2243 38.3281 22.2243 34.3741 22.2243 30.4233C22.2243 29.9907 22.1233 29.6837 21.6134 29.4929C20.7787 29.1876 20.0581 28.6278 19.5505 27.8906C19.043 27.1533 18.7736 26.2749 18.7793 25.3762C18.7793 24.3388 18.7633 23.1085 18.7793 21.8409C18.7866 20.6871 19.2423 19.5828 20.0479 18.7669C20.8535 17.9511 21.944 17.4895 23.0833 17.4822C24.2316 17.4822 25.396 17.4683 26.5536 17.4683H29.0478H31.5305H32.5456V15.1168C32.5456 12.4049 34.4358 10.507 37.1206 10.5H43.5973C46.2591 10.5 48.1286 12.3933 48.1423 15.0889C48.1423 15.5541 48.1423 16.0193 48.1423 16.5147V17.4683H57.3291C60.007 17.4683 61.8834 19.3755 61.8926 22.0944C61.8926 23.1395 61.8926 24.1838 61.8926 25.2273C61.8926 27.2717 60.8476 28.7952 58.9735 29.5232C58.8111 29.5623 58.6683 29.6598 58.5716 29.7976C58.4749 29.9353 58.4308 30.1039 58.4476 30.2721C58.4476 34.0989 58.4476 37.9257 58.4476 41.7525V45.6576C58.4435 45.6996 58.4481 45.742 58.4611 45.7821C58.4742 45.8221 58.4954 45.859 58.5234 45.8902L58.7002 46.067L58.7691 45.9833C59.0539 46.1042 59.3387 46.2159 59.6166 46.3228C60.3147 46.5698 60.989 46.8812 61.6308 47.2532C64.017 48.751 65.2572 50.9746 65.3055 53.8726C65.3468 56.0682 65.333 58.3033 65.3192 60.464V61.5316C65.3263 62.1218 65.2166 62.7074 64.9966 63.2539C64.7766 63.8004 64.4508 64.2967 64.0383 64.7136C63.6257 65.1305 63.1349 65.4595 62.5948 65.6811C62.0547 65.9028 61.4762 66.0127 60.8935 66.0042H59.8738C59.566 66.0042 59.2583 66.0042 58.9551 66.0042H58.9161C58.7563 65.9921 58.5972 66.0368 58.4665 66.1307C58.3357 66.2245 58.2413 66.3615 58.1995 66.5183C57.4738 68.4324 55.9511 69.4884 53.9139 69.4907L50.3426 69.5ZM24.064 64.8948C24.064 65.0158 24.064 65.1437 24.064 65.2716C24.1352 66.2252 24.753 67.2904 25.8209 67.4835C26.518 67.5904 27.222 67.6456 27.927 67.6486C28.2279 67.6486 28.5287 67.6649 28.8273 67.6812L29.057 67.6951V40.8803L28.8663 40.8478C27.1885 40.571 25.6384 39.769 24.4337 38.5545L24.0456 38.173L24.064 64.8948ZM40.878 67.63C43.4043 67.63 45.0395 67.63 45.7377 67.63C46.2269 67.63 46.7092 67.63 47.2007 67.63H49.7409V65.2158C49.7409 64.0319 49.7409 62.8504 49.7409 61.6688C49.7202 56.6427 46.1075 52.6236 41.1536 52.1072C40.8527 52.077 40.5495 52.0607 40.2464 52.0607C35.8827 52.0607 32.0495 55.296 31.1263 59.7523V59.7872C31.0431 60.1287 30.9946 60.4778 30.9816 60.8292C30.9816 62.4573 30.9816 64.0412 30.9816 65.7135V67.6254H34.1969L40.878 67.63ZM56.1784 38.6033C54.9858 39.7985 53.4533 40.5851 51.7964 40.8524L51.6057 40.885V67.6323H53.9874C55.5607 67.6184 56.6171 66.5392 56.6171 64.9506C56.6171 56.3822 56.6171 47.8137 56.6171 39.2453C56.6147 39.1385 56.6047 39.032 56.5872 38.9266C56.5872 38.8708 56.5712 38.8103 56.5643 38.7406L56.5115 38.2754L56.1784 38.6033ZM21.9281 48.0719C19.3879 48.465 17.2681 50.935 17.2015 53.5818C17.1372 56.1403 17.1625 58.7197 17.1854 61.2269V61.7107C17.1949 62.318 17.4258 62.9003 17.8336 63.3455C18.2415 63.7908 18.7976 64.0676 19.3948 64.1226C19.6865 64.1459 19.9966 64.1575 20.3755 64.1575C20.6327 64.1575 20.8945 64.1575 21.1564 64.1459C21.4182 64.1342 21.6869 64.1459 21.9579 64.1459H22.1876V48.03L21.9281 48.0719ZM58.4728 64.1529H60.7695C62.4484 64.1529 63.4934 63.0876 63.4957 61.3897V60.178C63.4957 58.1777 63.4956 56.11 63.4842 54.0773C63.4793 53.4584 63.3975 52.8426 63.2407 52.2445C62.6573 50.1 60.6753 48.2719 58.7277 48.0835L58.4751 48.0603L58.4728 64.1529ZM40.3612 50.2279C43.9348 50.2279 46.8608 51.6956 49.3183 54.7006L49.7248 55.2006V40.9292H47.3753C46.6863 40.9292 45.8778 40.9292 45.0533 40.9455C44.9271 40.9681 44.8085 41.0225 44.7085 41.1038C44.6086 41.1851 44.5305 41.2907 44.4814 41.4106C43.7098 43.3085 42.21 44.3994 40.3658 44.4087C38.5216 44.418 36.9805 43.3132 36.2019 41.4037C36.1422 41.2548 35.9332 40.9385 35.6783 40.9385C34.7367 40.9245 33.7973 40.9245 33.0026 40.9245H30.9862V55.1774L31.3927 54.6796C33.8432 51.6793 36.7738 50.221 40.3497 50.221L40.3612 50.2279ZM37.8165 37.7009C37.8165 37.9614 37.8165 38.2149 37.8165 38.4661C37.8165 39.0197 37.8165 39.5453 37.8165 40.0756C37.8319 40.7103 38.0818 41.3162 38.5168 41.7735C38.9518 42.2307 39.5402 42.5063 40.166 42.5457C40.2211 42.5457 40.274 42.5457 40.3268 42.5457C40.9293 42.5571 41.5149 42.3434 41.9716 41.9452C42.4284 41.547 42.7242 40.9924 42.8026 40.3873C42.8565 39.7686 42.868 39.1469 42.837 38.5266C42.837 38.2521 42.8232 37.9754 42.8232 37.6962V37.4637H37.8119L37.8165 37.7009ZM24.0709 30.0256C24.0709 30.3977 24.0709 30.7629 24.0594 31.1257C24.0594 31.9305 24.0387 32.691 24.0823 33.4632C24.2247 35.996 26.046 38.2358 28.4116 38.7917C29.3199 38.965 30.2435 39.043 31.1676 39.0243C31.3973 39.0243 31.6269 39.0243 31.8566 39.0383C32.3022 39.0522 32.7753 39.0569 33.3609 39.0569H34.5093H35.6576H35.8115L35.8689 38.9103L35.9011 38.8382C35.9306 38.784 35.9471 38.7234 35.9493 38.6615V37.6218V36.7473C35.9493 35.8821 36.2639 35.5844 37.1252 35.5844H43.3722C44.385 35.5844 44.6629 35.8611 44.6652 36.8706V39.0662H44.8949H46.7322H48.5695C49.4147 39.0662 50.1129 39.0662 50.7652 39.0522C53.5786 39.0103 55.9074 37.1008 56.4311 34.4005C56.5935 33.4083 56.6704 32.4036 56.6607 31.3978C56.6607 30.9489 56.6791 30.4861 56.7021 30.0325L56.7159 29.7883H24.0778L24.0709 30.0256ZM51.6149 27.9044H51.8446H53.5946H55.3172C56.2358 27.9044 56.9754 27.9044 57.669 27.8835C58.2983 27.8663 58.8969 27.6045 59.3407 27.1524C59.7846 26.7003 60.0396 26.0926 60.0529 25.4553C60.0828 24.2435 60.0828 23.0085 60.0529 21.7897C60.0476 21.1607 59.804 20.5578 59.3723 20.1055C58.9406 19.6531 58.3539 19.386 57.7333 19.3592C57.0305 19.3406 56.2703 19.3336 55.3447 19.3336H53.6107C53.0274 19.3336 52.441 19.3336 51.8515 19.3336H51.6218L51.6149 27.9044ZM25.272 19.3173C24.3143 19.3173 23.5289 19.3313 22.8008 19.3615C21.5997 19.4104 20.6419 20.5105 20.6213 21.8641C20.6075 22.8131 20.6213 23.7806 20.6213 24.7133V25.1785C20.6213 26.8345 21.6846 27.9067 23.3176 27.9114H28.3588C28.4759 27.9114 28.5884 27.9114 28.7125 27.8904L28.8732 27.8765L29.0868 27.8625V19.3592H28.8571C28.2508 19.3592 27.6491 19.3592 27.052 19.3476C26.4548 19.3359 25.8692 19.329 25.2789 19.329L25.272 19.3173ZM30.9632 27.8741H49.7179V19.3708H30.9701L30.9632 27.8741ZM40.3497 12.3398C39.1807 12.3398 37.9888 12.3398 36.8083 12.3607C36.1901 12.3683 35.5976 12.6122 35.1495 13.0435C34.7014 13.4748 34.4309 14.0617 34.3921 14.6865C34.36 15.2517 34.3669 15.8053 34.3761 16.3914C34.3761 16.6472 34.3761 16.9077 34.3761 17.1729V17.4055H46.2844V17.1729C46.2844 16.9124 46.2844 16.6565 46.2844 16.4054C46.2844 15.8355 46.2843 15.2959 46.2729 14.747C46.2466 14.1098 45.9808 13.5068 45.53 13.0615C45.0791 12.6161 44.4773 12.3621 43.8476 12.3514C42.7061 12.3584 41.5256 12.3514 40.3566 12.3514L40.3497 12.3398Z" fill="#1A1A1A"/>
<path d="M38.5198 58.4992C38.1274 58.4992 37.7329 58.4992 37.3384 58.4992C37.0467 58.5076 36.7614 58.4468 36.5452 58.3303C36.4726 58.2847 36.4165 58.2308 36.3802 58.1718C36.3439 58.1129 36.3283 58.0502 36.3342 57.9876C36.3448 57.6886 36.7309 57.5009 37.3363 57.5009C38.3335 57.5009 39.332 57.5009 40.332 57.5009C41.3319 57.5009 42.3305 57.5009 43.3277 57.5009C43.472 57.4964 43.6164 57.5089 43.7525 57.5377C43.8887 57.5665 44.0138 57.6109 44.1209 57.6685C44.1934 57.7142 44.2495 57.7682 44.2857 57.8271C44.322 57.886 44.3377 57.9487 44.3318 58.0113C44.3192 58.3103 43.9352 58.498 43.3297 58.4992C42.9331 58.4992 42.5365 58.4992 42.1399 58.4992H38.5198Z" fill="#1A1A1A"/>
</svg>
