<svg width="80" height="81" viewBox="0 0 80 81" fill="none" xmlns="http://www.w3.org/2000/svg">
<path d="M77.3162 12.3369C77.0713 12.0825 76.7782 11.8799 76.4542 11.7412C76.1303 11.6024 75.782 11.5304 75.4299 11.5292C73.8758 11.5097 72.27 11.5 70.6514 11.5C69.1198 11.5 67.5303 11.5 65.931 11.526C65.5906 11.5214 65.2526 11.5847 64.9367 11.7122C64.6207 11.8397 64.3329 12.0289 64.09 12.2688C63.8753 12.4947 63.7078 12.7614 63.597 13.0533C63.4863 13.3452 63.4346 13.6564 63.4451 13.9687C63.4741 15.3344 64.5252 16.3011 66.0052 16.3173C66.3663 16.3173 66.7241 16.3173 67.0852 16.3173H68.4137C65.9739 21.6872 63.53 27.0559 61.0816 32.4236L61.0654 32.4561C60.9848 32.6345 60.9461 32.7026 60.8559 32.7415C60.0498 33.0854 59.2437 33.4325 58.4053 33.7991L57.9152 34.0132V29.8155C57.9152 28.4108 57.7347 28.2357 56.3031 28.2357H15.9699C14.7414 28.2357 14.5093 28.4725 14.5093 29.7214C14.5093 30.8179 14.5093 31.9111 14.5093 33.0432V33.9775L13.8451 33.6531C12.9777 33.2476 12.1457 32.8616 11.3106 32.482C11.09 32.3745 10.8495 32.3149 10.6045 32.3068C10.3756 32.3068 9.63722 32.3944 9.63722 33.5266C9.63722 37.5448 9.63722 41.5619 9.63722 45.5779C9.63722 48.3894 9.63722 51.1933 9.63722 53.9896C9.61442 54.2996 9.71417 54.6061 9.91463 54.8427C10.0302 54.9514 10.1669 55.0347 10.3163 55.0872C10.4656 55.1397 10.6243 55.1603 10.782 55.1477H11.8299H13.442C13.9321 55.1477 14.3578 55.1477 14.4416 55.2288C14.5254 55.3099 14.5286 55.7154 14.5383 56.2019V56.2701C14.5383 56.6983 14.5383 56.7469 14.1192 56.7891C12.7685 56.9554 11.5184 57.5921 10.5855 58.5888C9.65259 59.5854 9.09577 60.8791 9.01172 62.2455C8.92113 63.684 9.35816 65.106 10.2401 66.242C11.1219 67.378 12.3875 68.149 13.7967 68.409C14.1462 68.4681 14.4999 68.4985 14.8543 68.4999C16.1194 68.5089 17.3528 68.1018 18.3667 67.3405C19.3807 66.5793 20.1196 65.5055 20.471 64.2827C20.8916 62.8898 20.7723 61.3884 20.1369 60.0805C19.5016 58.7726 18.3975 57.7554 17.0467 57.2335C16.5792 57.0421 16.5245 56.9091 16.5793 56.6107C16.6245 56.3597 16.6245 56.1026 16.5793 55.8516C16.5213 55.5272 16.5793 55.4202 16.5793 55.391C16.5793 55.3618 16.8437 55.2807 17.1984 55.2807C23.4374 55.3001 31.8111 55.3001 37.9276 55.3001H46.9074C48.1811 55.3001 49.4545 55.3001 50.7282 55.3001H55.0295C55.3268 55.2721 55.6266 55.2951 55.9162 55.3682C55.9874 55.672 56.0091 55.9853 55.9806 56.296C55.9806 56.3577 55.9806 56.4193 55.9806 56.4777C55.9806 56.8994 55.9806 57.0746 55.5582 57.2433C54.2505 57.727 53.1659 58.6786 52.5116 59.9162C51.8573 61.1537 51.6792 62.5905 52.0114 63.9518C52.321 65.2553 53.0633 66.4135 54.1156 67.2351C55.1679 68.0567 56.4673 68.4926 57.7992 68.4707C57.9636 68.4707 58.1217 68.4707 58.2926 68.4512C59.6314 68.3276 60.8858 67.7403 61.842 66.7895C62.7982 65.8388 63.3968 64.5835 63.5353 63.2381C63.7868 60.1434 61.9843 57.5839 59.0502 56.8734C58.5504 56.7502 58.2184 56.6691 58.1314 56.5491C58.0443 56.429 58.0443 56.0787 58.0508 55.5272C58.0551 55.4862 58.0551 55.4449 58.0508 55.4039C58.0371 55.3278 58.0371 55.2498 58.0508 55.1736C58.1185 55.1473 58.1912 55.1373 58.2635 55.1444H58.328C58.7407 55.1444 59.1857 55.1704 59.7242 55.1704H60.7559H61.562C62.7002 55.1704 62.9323 54.9303 62.9323 53.769C62.9323 51.3782 62.8711 43.1677 62.8356 38.2595C62.8163 36.1315 62.8066 34.5419 62.8034 34.1494C62.7954 33.7941 62.867 33.4415 63.0129 33.1178C65.228 28.2843 67.8494 22.5522 70.503 16.6871C70.5351 16.5649 70.6115 16.4592 70.7172 16.3907C70.8228 16.3223 70.9499 16.2961 71.0738 16.3173H71.1125C71.796 16.3173 72.4796 16.3173 73.1631 16.3173H75.0977H75.3718C76.8937 16.3173 77.9738 15.3733 77.9996 14.0465C78.0052 13.73 77.9476 13.4157 77.8302 13.122C77.7128 12.8283 77.538 12.5614 77.3162 12.3369ZM14.5254 53.2142C14.4837 53.2212 14.4412 53.2212 14.3996 53.2142H14.3512C13.9031 53.2142 13.458 53.1851 13.0099 53.1851C12.5617 53.1851 12.2457 53.1851 11.9136 53.2207H11.8007C11.646 53.2207 11.6106 53.1915 11.6106 53.1915C11.6106 53.1915 11.5621 53.1267 11.5654 52.825C11.5847 49.581 11.5654 46.2624 11.5654 43.0606V34.8663L12.0781 35.0837L14.4254 36.0763C14.4931 36.1055 14.5125 36.1153 14.5125 36.4007C14.5125 41.8603 14.5125 47.5049 14.5125 53.0553C14.5254 53.1591 14.506 53.2078 14.5254 53.2142ZM18.6558 62.4661C18.6558 62.9831 18.5533 63.4949 18.3546 63.9716C18.1558 64.4484 17.8648 64.8806 17.4983 65.2429C17.1372 65.6155 16.706 65.912 16.23 66.1153C15.7539 66.3186 15.2425 66.4245 14.7253 66.427C13.6868 66.4138 12.6952 65.9895 11.9653 65.2461C11.2279 64.5113 10.8084 63.5135 10.798 62.4693C10.8207 61.4413 11.2347 60.4613 11.9547 59.7315C12.6747 59.0017 13.6456 58.5778 14.6672 58.5473C15.7043 58.5578 16.697 58.9716 17.4375 59.7021C18.178 60.4326 18.6088 61.4231 18.6395 62.4661H18.6558ZM31.6854 30.1788C31.7218 30.1758 31.7585 30.1758 31.7949 30.1788C31.8654 30.1901 31.9365 30.1966 32.0078 30.1983C32.7171 30.1983 33.4297 30.1983 34.139 30.1983H38.4113C39.0562 30.1983 39.701 30.1983 40.3459 30.1983C40.4268 30.1961 40.5075 30.1896 40.5877 30.1788C40.6451 30.1677 40.7034 30.1612 40.7618 30.1593C40.7666 30.1927 40.7666 30.2265 40.7618 30.2599C40.7618 30.7465 40.5748 30.873 40.2942 30.9087C40.2384 30.9121 40.1824 30.9121 40.1266 30.9087H32.3109C32.1702 30.9165 32.0294 30.8989 31.8949 30.8568C31.7272 30.7789 31.6143 30.6265 31.6691 30.1788H31.6854ZM16.5502 30.62C16.5502 30.3669 16.589 30.2956 16.6051 30.2956C16.6213 30.2956 16.6857 30.2372 16.9082 30.2372H16.9661C17.3434 30.2372 18.1109 30.2372 19.3877 30.2372H29.4475C29.77 30.2372 29.77 30.2372 29.77 30.4902C29.8635 32.1382 30.6986 32.9492 32.3205 32.9751C33.5618 32.9978 34.8483 33.0075 36.1445 33.0075C37.4407 33.0075 38.7241 33.0075 40.0493 32.9783C41.6614 32.9556 42.5642 32.1219 42.7706 30.5032C42.8028 30.2372 42.8158 30.2339 43.1188 30.2339H49.3707H55.6711C55.8936 30.2339 55.9452 30.2761 55.9516 30.2826C55.9581 30.2891 55.9968 30.3378 55.9935 30.5583C55.9677 32.0246 55.9677 33.3255 55.9935 34.5322C55.9935 34.8371 55.9034 34.9637 55.5455 35.1259L51.2376 37.0722L47.046 38.9635C45.6402 39.5993 44.2343 40.2308 42.8285 40.858L39.443 42.3891C38.4757 42.8206 37.4859 43.2682 36.5121 43.7289C36.4405 43.7668 36.361 43.7869 36.28 43.7873C36.1675 43.7797 36.0577 43.7488 35.9576 43.6964L32.3238 42.0744C31.1662 41.5587 30.0055 41.0429 28.8512 40.5206C27.484 39.9064 26.118 39.29 24.753 38.6715C22.1736 37.5102 19.5327 36.3131 16.9178 35.1453C16.5954 35.0026 16.5438 34.8923 16.547 34.6133C16.5567 33.4098 16.5728 32.0084 16.5341 30.62H16.5502ZM16.9501 52.426C16.8404 52.4746 16.6856 52.5492 16.5695 52.5914C16.5695 52.4746 16.5695 52.3189 16.5695 52.2183C16.5695 47.3351 16.5695 42.4551 16.5695 37.5783C16.5695 37.4323 16.5695 37.2831 16.5695 37.176L16.892 37.3155C16.892 37.3155 30.5665 43.398 33.5458 44.728C33.6425 44.7702 33.7359 44.8156 33.8391 44.8675L30.7728 46.23C27.8709 47.5276 25.0045 48.7927 22.1477 50.0676C20.7097 50.7164 19.2813 51.3652 17.8497 52.014L16.9501 52.426ZM49.9931 53.3797H19.9745L20.0938 53.3213C20.9547 52.9223 21.8124 52.52 22.6733 52.1275C24.3929 51.3446 26.1126 50.565 27.8322 49.7886L31.163 48.2802C32.701 47.5827 34.2358 46.8885 35.7706 46.1846C35.8711 46.1356 35.9813 46.1101 36.093 46.1099C36.2365 46.1133 36.3774 46.1488 36.5057 46.2138C40.6199 48.0974 44.7364 49.9789 48.855 51.8583L49.1612 51.9978C50.1285 52.4357 51.112 52.8866 52.0857 53.3797H49.9931ZM55.9677 52.6044C55.8864 52.5777 55.8068 52.5463 55.7292 52.5103C51.7052 50.7002 47.6071 48.8771 43.6444 47.1156L39.0014 45.0492C38.8853 44.9973 38.7692 44.9389 38.6467 44.8772L39.5721 44.4523C40.6297 43.9689 41.6452 43.5018 42.6673 43.0444L47.1814 41.0331L50.8798 39.3884C52.4683 38.6791 54.0558 37.9622 55.6421 37.2377C55.7448 37.1881 55.8531 37.1511 55.9646 37.1274C55.9887 37.2337 55.9984 37.3428 55.9935 37.4518C55.9645 42.5318 55.9742 47.6087 55.9935 52.3416C55.9929 52.4294 55.9875 52.5172 55.9775 52.6044H55.9677ZM61.3749 62.479C61.3557 63.5231 60.9335 64.5187 60.1974 65.255C59.4614 65.9912 58.4694 66.4104 57.4316 66.4237C56.3908 66.4134 55.3967 65.9883 54.6671 65.2415C53.9375 64.4947 53.5321 63.4872 53.5399 62.4401C53.5547 61.4151 53.965 60.4361 54.684 59.7098C55.4029 58.9834 56.3743 58.5666 57.393 58.5473V58.2229L57.422 58.5473C58.4656 58.5404 59.4692 58.9507 60.2122 59.6879C60.9553 60.4252 61.377 61.4291 61.3847 62.479H61.3749ZM60.9558 53.198C60.9558 53.198 60.9106 53.237 60.7236 53.237H60.5882C60.2303 53.2175 59.8498 53.2045 59.4274 53.2045C58.9405 53.2045 58.4602 53.2045 58.0668 53.2337H58.025H57.9217C57.9168 53.1765 57.9168 53.119 57.9217 53.0618C57.9217 49.0047 57.9217 44.9475 57.9217 40.8904V36.3942C57.9217 36.3942 57.9217 36.1834 57.9217 36.1737H57.9539C58.7471 35.8493 59.5371 35.4957 60.3593 35.1421L60.8721 34.9182C60.8721 38.0389 60.9881 50.4309 61.0171 52.8542C61.0074 53.1234 60.9558 53.1883 60.9558 53.198ZM75.1429 14.3806C74.498 14.3806 73.8532 14.3806 73.2083 14.3806H68.0494C67.4045 14.3806 66.7596 14.3806 66.1148 14.3806C65.8975 14.4061 65.6784 14.3507 65.4989 14.2249C65.4599 14.1814 65.4311 14.1298 65.4143 14.0737C65.3976 14.0176 65.3935 13.9584 65.4022 13.9005C65.4022 13.7351 65.4023 13.4626 66.1116 13.4626H75.1848C75.4007 13.4407 75.6173 13.4983 75.7942 13.6248C75.8283 13.6621 75.8539 13.7063 75.8695 13.7544C75.8851 13.8026 75.8901 13.8535 75.8844 13.9038C75.9038 14.0854 75.9039 14.3806 75.1429 14.3806Z" fill="#1A1A1A"/>
</svg>
