<svg width="81" height="81" viewBox="0 0 81 81" fill="none" xmlns="http://www.w3.org/2000/svg">
<path d="M40.8867 72.5C40.5886 72.5 40.2958 72.2737 40.0809 71.8777C39.2913 70.3674 38.5069 68.8517 37.728 67.3305L36.5381 65.0246C35.547 63.1039 34.5532 61.1859 33.5244 59.1979L31.98 56.2158L31.7248 56.5687L31.5448 56.8381C31.4643 56.9632 31.3746 57.0821 31.2762 57.1937C29.1274 59.4942 26.9787 61.7911 24.8299 64.0845L23.4869 65.5149C23.4224 65.5849 23.3579 65.655 23.2881 65.725C23.2094 65.8196 23.1124 65.8972 23.003 65.9533C22.8936 66.0093 22.774 66.0425 22.6515 66.051C22.5362 66.0491 22.4226 66.0225 22.3184 65.9729C22.1487 65.9058 22.0077 65.7812 21.9199 65.6208C21.8321 65.4604 21.803 65.2743 21.8377 65.0947C21.9559 63.7316 22.0821 62.3712 22.2056 61.0081L23.4439 47.3639C23.4761 47.0029 23.503 46.6419 23.5298 46.2863C23.5916 45.4782 23.6534 44.6485 23.7797 43.843C23.9059 43.0376 23.6346 42.6093 22.8879 42.3884C22.5968 42.3174 22.3251 42.1822 22.0927 41.9925C21.8604 41.8028 21.6732 41.5635 21.5449 41.292C21.3466 40.8609 21.3196 40.3702 21.4693 39.9198C21.619 39.4694 21.9342 39.0931 22.3507 38.8675C22.5495 38.7571 22.767 38.6601 22.9953 38.5604L23.3606 38.3961L23.6292 38.2722L23.0356 37.2297C22.4367 36.1737 21.8457 35.1339 21.2467 34.0968C21.1526 33.9546 21.015 33.8468 20.8546 33.7897L19.149 33.1647C17.7201 32.6475 16.2427 32.1087 14.8111 31.5484C14.6857 31.457 14.5797 31.3417 14.499 31.209C14.4183 31.0763 14.3646 30.9289 14.341 30.7753C14.3061 30.549 14.3598 30.2796 15.0206 30.0021C17.5114 28.9569 20.0004 27.9063 22.4877 26.8504L25.504 25.5762L28.0315 24.5121C30.1803 23.6124 32.3963 22.6803 34.5666 21.7321C34.8653 21.5914 35.1902 21.5152 35.5201 21.5085C35.842 21.5133 36.159 21.5877 36.4495 21.7267C37.1747 22.0527 37.9026 22.3355 38.6735 22.6372C39.0039 22.7638 39.3396 22.9066 39.678 23.0305L40.046 23.1787V18.7743C40.046 16.3121 40.046 13.849 40.046 11.3851C40.046 9.68527 41.1392 8.5 42.6971 8.5C43.0311 8.50156 43.3631 8.55145 43.6828 8.64816C49.361 10.3076 54.8807 11.9454 59.5302 13.3273C61.2089 13.8257 62.0255 14.9248 62.0282 16.6865C62.0282 19.3076 62.0282 21.9287 62.0282 24.5741V28.0895L66.0169 29.7058C66.1082 29.7435 66.2049 29.7732 66.3016 29.8028C66.4545 29.8357 66.599 29.8999 66.726 29.9914C66.9382 30.1961 67.333 30.5759 67.333 30.7995C67.3015 30.9568 67.2375 31.1057 67.1449 31.2366C67.0524 31.3675 66.9334 31.4774 66.7958 31.5592C65.5012 32.1895 64.1474 32.7364 62.8796 33.2347C62.2403 33.488 61.9906 33.8543 62.0147 34.5089C62.0684 35.8343 62.0523 37.157 62.0147 38.3907C62.0303 39.1541 61.8179 39.9046 61.4048 40.5459C60.9917 41.1872 60.3969 41.69 59.6967 41.9897C59.3368 42.1621 58.9688 42.3183 58.582 42.4827L58.0448 42.717L57.8649 42.7925L58.0394 44.7401C58.1379 45.8589 58.2382 46.9742 58.3403 48.0858C58.6707 51.7171 59.7021 63.0393 59.7021 63.0393L59.8848 65.0139C59.925 65.496 59.7773 65.787 59.4013 65.954C59.2945 66.0047 59.1783 66.0323 59.0601 66.0348C58.9189 66.0217 58.7823 65.9778 58.6598 65.9061C58.5373 65.8345 58.4319 65.7368 58.3511 65.62L53.4115 59.9495L50.5375 56.663L50.2958 56.3936L50.1051 56.7088L49.9627 56.9431C49.8714 57.094 49.7881 57.2287 49.7102 57.3688L42.8958 69.7281L41.8752 71.5706L41.8026 71.7053C41.765 71.7754 41.7274 71.8454 41.6872 71.9154C41.6133 72.0724 41.5013 72.2082 41.3614 72.3103C41.2216 72.4125 41.0583 72.4777 40.8867 72.5ZM39.0898 49.2657C38.8162 49.2936 38.5612 49.4177 38.3699 49.6159C37.6948 50.3343 37.0233 51.0526 36.3554 51.771C35.5147 52.6734 34.6445 53.6055 33.7769 54.5106C33.3096 54.9982 33.374 55.405 33.613 55.8575C35.2757 59.0497 36.9571 62.3012 38.5821 65.4449L40.3657 68.893C40.4274 69.0115 40.4946 69.1246 40.5779 69.2647C40.6182 69.3347 40.6664 69.4129 40.7175 69.5045L40.9539 69.9139L43.758 64.8549C45.4153 61.8621 47.129 58.7669 48.8023 55.7174C48.9125 55.5181 49.0709 54.9874 48.8534 54.7234C47.5104 53.1475 46.1325 51.5662 44.7976 50.0361L43.7232 48.8185L43.5539 48.8751L43.4438 48.9101C43.3703 48.9305 43.2984 48.9566 43.2289 48.9883C42.4822 49.3829 41.6552 49.6004 40.8115 49.624C40.2731 49.6242 39.7402 49.5142 39.2456 49.3007C39.196 49.2802 39.1434 49.2684 39.0898 49.2657ZM25.359 44.5003L23.7206 62.5678L24.1718 62.2985L24.2846 62.2338C24.3532 62.2027 24.4159 62.1599 24.4699 62.1072L25.257 61.2667C27.1049 59.2975 29.0173 57.261 30.876 55.2379C30.9725 55.0955 31.0312 54.9307 31.0467 54.7592C31.0622 54.5876 31.034 54.415 30.9647 54.2574C30.543 53.3873 30.089 52.5172 29.6512 51.674C29.5062 51.4046 29.3638 51.1352 29.2215 50.8497L25.9123 44.4464L25.359 44.5003ZM51.1445 54.8446L57.5264 62.1584L58.018 61.9402L56.5729 46.0466H56.0357L51.1445 54.8446ZM28.0799 45.1253L32.4527 53.5785L37.2553 48.4306L28.3915 44.6916L28.0799 45.1253ZM45.2703 48.1181L50.0057 53.5462L55.3777 43.8484L45.2703 48.1181ZM22.6972 40.5081L23.6212 40.9095L24.1584 41.1438L28.1873 42.8382C31.9236 44.4114 35.786 46.0385 39.5732 47.6602C39.9963 47.8496 40.4531 47.9513 40.9162 47.9592C41.3668 47.9543 41.8114 47.8553 42.2217 47.6683C43.5647 47.0756 44.956 46.4965 46.2936 45.9334L48.1335 45.1603L51.4293 43.7649C53.9039 42.7143 56.3795 41.6673 58.856 40.6239C59.8525 40.2064 60.3817 39.5464 60.43 38.6736C60.4784 37.8008 60.4676 36.8768 60.4568 35.9367C60.4568 35.538 60.4568 35.1285 60.4568 34.7325V34.3392L59.8203 34.5843C59.6484 34.6463 59.4953 34.7056 59.3449 34.7675L55.8209 36.2599C53.237 37.3536 50.6512 38.4437 48.0637 39.5302C47.8972 39.6002 47.728 39.6811 47.5615 39.7592C47.13 40.0062 46.6511 40.1586 46.1566 40.2064C45.7961 40.1984 45.4507 40.0596 45.1843 39.8158L44.9694 39.6353L41.7006 43.9831L40.4221 43.0053L43.3229 39.11L43.0006 38.978L42.3049 38.7086C41.8188 38.5066 41.3595 38.318 40.8975 38.1429C40.3146 37.9274 40.0917 37.6903 40.0917 37.2674C40.0917 36.8445 40.3603 36.6128 40.8975 36.3892C42.7777 35.5972 44.6793 34.7945 46.5676 33.9944L49.3449 32.8199L57.0403 29.5684L60.4542 28.1299V16.9802C60.4542 15.5982 60.1534 15.1942 58.8426 14.8089C53.7303 13.295 48.6188 11.7829 43.5083 10.2725C43.248 10.1858 42.9766 10.1377 42.7025 10.1298C41.671 10.1298 41.671 11.1938 41.671 11.6464V31.341C41.671 32.3916 41.6415 32.4347 40.6718 32.8441L27.2929 38.5012C27.0646 38.5982 26.8363 38.7005 26.6026 38.8056L25.9983 39.075L26.4093 39.8616L25.0367 40.6697L24.4054 39.7188L22.6972 40.5081ZM61.3245 29.66C61.0364 29.6654 60.7527 29.7315 60.4918 29.854C57.5372 31.1201 54.5154 32.3916 51.5958 33.6253L48.6036 34.8861L45.2488 36.3057L43.0517 37.2351L43.6506 37.4802C43.8763 37.5718 44.0911 37.6634 44.2926 37.7496C44.7389 37.9522 45.1953 38.132 45.6597 38.2884C45.8538 38.348 46.0557 38.378 46.2587 38.3773C46.4555 38.3806 46.6512 38.3477 46.8362 38.2803C47.7575 37.9247 48.6788 37.5287 49.5706 37.1462L50.6073 36.7044L64.51 30.8372L63.9003 30.5948L63.253 30.3416C62.8232 30.1772 62.4472 30.0372 62.1034 29.8621C61.863 29.7347 61.5963 29.6655 61.3245 29.66ZM22.5414 32.9815L25.1844 37.6203L25.6008 37.456C25.727 37.4075 25.8398 37.3644 25.9499 37.3159L28.6735 36.1656C31.9128 34.7989 35.1503 33.4314 38.3861 32.0629C40.0299 31.3679 40.0917 31.2709 40.0917 29.4553V25.5735L22.5414 32.9815ZM35.5926 23.2137C35.2874 23.2195 34.9866 23.2883 34.7089 23.4157C31.5207 24.7842 28.2626 26.1554 25.1307 27.4807L21.9666 28.8276L17.3252 30.7834L17.9188 31.0312L18.4936 31.2602C18.8669 31.4083 19.1866 31.5295 19.4901 31.6912C19.7884 31.8522 20.1211 31.9381 20.4597 31.9417C20.8145 31.9328 21.1637 31.8512 21.4858 31.7019C24.4404 30.4305 27.446 29.159 30.3496 27.9306L33.5996 26.5594L36.5542 25.3041L38.746 24.372L38.1443 24.1296L37.5266 23.8872C37.1183 23.7282 36.7664 23.5935 36.4306 23.4265C36.1716 23.2912 35.8847 23.2184 35.5926 23.2137Z" fill="#1A1A1A"/>
<path d="M44.333 18.8511L44.8539 17.5L57.333 21.1465L56.8149 22.5L44.333 18.8511Z" fill="#1A1A1A"/>
</svg>
