<svg width="81" height="81" viewBox="0 0 81 81" fill="none" xmlns="http://www.w3.org/2000/svg">
<path d="M20.2163 64.5C19.3558 64.5 18.496 64.4948 17.6372 64.4843C17.3725 64.4906 17.1092 64.4438 16.8632 64.3467C16.6171 64.2495 16.3934 64.1039 16.2053 63.9187C16.0172 63.7335 15.8687 63.5124 15.7686 63.2688C15.6686 63.0251 15.6191 62.7639 15.6231 62.5008C15.6072 62.081 15.6231 61.6533 15.6231 61.1889C15.6231 60.9685 15.6231 60.7377 15.6231 60.4937V60.2313H15.3591C15.1558 60.2313 14.9578 60.2313 14.7625 60.2313C14.5671 60.2313 14.4061 60.2444 14.2345 60.2444C14.0386 60.2465 13.8428 60.2351 13.6485 60.2103C11.1591 59.8823 9.48279 57.9566 9.47751 55.4169C9.47751 51.686 9.47751 47.956 9.47751 44.2269V28.7866L9.33231 28.7132C9.1528 28.6213 8.97329 28.5453 8.80434 28.4718C8.49994 28.3738 8.21946 28.2139 7.98074 28.0022C7.65782 27.6171 7.45262 27.1483 7.38942 26.651C7.33302 26.0168 7.31887 25.3796 7.34715 24.7436C7.34715 24.4812 7.36036 24.2031 7.36036 23.9329C7.36036 22.5397 7.82761 21.9966 9.2716 21.7001L9.4828 21.6555V20.9602C9.4828 20.6113 9.4828 20.2571 9.4828 19.9108C9.51711 17.901 10.9399 16.5 12.9436 16.5C20.2506 16.5 28.8961 16.5 37.5337 16.5H61.8439C62.4775 16.5 63.1031 16.5 63.7261 16.5H67.5539C67.9842 16.5 68.4171 16.5 68.8474 16.5C69.7257 16.5005 70.5687 16.8436 71.1951 17.4554C71.8216 18.0672 72.1815 18.899 72.1974 19.7717C72.2132 20.1338 72.1974 20.4958 72.1974 20.8815C72.1974 21.0626 72.1974 21.2462 72.1974 21.4325V21.6345L72.5775 21.7342C72.7068 21.7657 72.8415 21.7972 72.9523 21.8313C73.3403 21.9213 73.6863 22.139 73.9341 22.449C74.1818 22.7591 74.3169 23.1433 74.3172 23.5393C74.3383 24.6465 74.3383 25.7222 74.3172 26.7375C74.3013 27.5824 73.9872 28.1307 72.3901 28.6109L72.2027 28.6686V29.6105C72.2027 32.0452 72.1982 34.4809 72.1894 36.9174C72.1762 42.8075 72.163 48.8997 72.2343 54.8895C72.2528 56.5136 71.738 57.9015 70.7428 58.9011C70.3024 59.3442 69.7773 59.6952 69.1984 59.9335C68.6194 60.1719 67.9984 60.2928 67.3717 60.289C67.2213 60.289 67.0708 60.289 66.9203 60.268H66.8147C66.7197 60.268 66.622 60.268 66.5138 60.289L66.3026 60.31L66.0598 60.3284V61.1443C66.0598 61.5353 66.0598 61.9183 66.0598 62.2987C66.0386 63.6893 65.2361 64.4895 63.8634 64.4974C63.0345 64.4974 62.203 64.4974 61.374 64.4974H58.7896C57.5859 64.4974 56.9418 64.0172 56.5616 62.8576C56.3874 62.3329 56.221 61.7871 56.0495 61.2388L55.7485 60.2811H41.6386C37.3436 60.2811 31.1426 60.2811 26.8925 60.2602C26.1401 60.2602 25.7864 60.5225 25.6201 61.2335C25.4814 61.7777 25.3149 62.3145 25.1212 62.8418L25.0605 63.0176C24.7173 64.0041 24.0573 64.4869 23.0436 64.4948C22.0985 64.4983 21.1561 64.5 20.2163 64.5ZM57.3958 60.6485C57.4512 60.8295 57.5066 61.0079 57.5594 61.1732C57.7046 61.6507 57.842 62.1046 58.0162 62.5532C58.0877 62.6876 58.1932 62.8012 58.3224 62.8826C58.4516 62.9641 58.5998 63.0106 58.7526 63.0176C59.5816 63.0176 60.4079 63.036 61.2368 63.036C62.1475 63.036 62.9949 63.036 63.8238 63.0124C63.9992 62.9882 64.1633 62.913 64.2958 62.7963C64.4282 62.6796 64.523 62.5266 64.5682 62.3565C64.6044 61.9245 64.6142 61.4908 64.5973 61.0577C64.5973 60.8925 64.5973 60.7245 64.5973 60.5566V60.2943H57.2928L57.3958 60.6485ZM17.067 61.1128C17.067 61.5221 17.067 61.9131 17.067 62.304C17.06 62.4024 17.0729 62.5012 17.1051 62.5945C17.1373 62.6878 17.1881 62.7737 17.2545 62.8471C17.3374 62.9194 17.4342 62.9746 17.5389 63.0092C17.6436 63.0439 17.7542 63.0575 17.8643 63.0491H19.9709C20.9397 63.0491 21.9111 63.0491 22.8747 63.036C23.0285 63.0349 23.1795 62.9945 23.3131 62.9186C23.4467 62.8428 23.5584 62.7342 23.6376 62.6031C23.8171 62.1413 23.957 61.6743 24.1075 61.1784C24.1603 61 24.2157 60.8216 24.2712 60.638L24.3794 60.2995H17.067V61.1128ZM52.8157 58.825H67.1948C69.341 58.825 70.7296 57.4607 70.7323 55.3539C70.7323 48.9626 70.7323 42.5723 70.7323 36.1828V28.5741H64.7108C64.7108 28.5741 64.7108 30.6153 64.7108 31.1532C64.7108 32.3601 64.7108 33.5696 64.7108 34.7765C64.7108 36.1565 63.8977 36.9541 62.5039 36.9672C61.902 36.9672 61.3001 36.9672 60.6982 36.9672C60.1386 36.9672 59.5763 36.9672 59.0166 36.9672C57.7152 36.9489 56.9048 36.1303 56.8916 34.8316C56.8916 33.6011 56.8916 32.3706 56.8916 31.1401V28.5715L56.6408 28.5584L56.3293 28.5426C56.1234 28.5426 55.9333 28.519 55.7459 28.519H24.7727V29.8309C24.7727 30.3372 24.7727 30.841 24.7727 31.3473C24.7727 32.5227 24.7727 33.7401 24.7727 34.9339C24.7792 35.2014 24.7311 35.4675 24.6314 35.7161C24.5316 35.9647 24.3823 36.1906 24.1924 36.3804C24.0025 36.5701 23.7759 36.7197 23.5263 36.8201C23.2767 36.9205 23.0093 36.9696 22.74 36.9646C22.117 36.9646 21.4861 36.9803 20.8657 36.9803C20.2454 36.9803 19.6118 36.9804 18.9915 36.9646C18.7223 36.97 18.4548 36.9211 18.2051 36.8208C17.9555 36.7205 17.729 36.5709 17.5392 36.3811C17.3494 36.1912 17.2004 35.9651 17.1011 35.7163C17.0018 35.4676 16.9543 35.2014 16.9615 34.9339C16.9456 33.6876 16.9615 32.4178 16.9615 31.1925C16.9615 30.6494 16.9615 30.109 16.9615 29.5685V28.561H10.94V55.2542C10.94 57.4869 12.2784 58.8171 14.517 58.8198H52.8368L52.8157 58.825ZM61.7093 35.5347H62.4405C62.5529 35.5444 62.6661 35.5312 62.7732 35.496C62.8803 35.4609 62.9791 35.4044 63.0635 35.3301C63.136 35.2487 63.1908 35.1534 63.2244 35.05C63.2581 34.9466 63.2698 34.8374 63.2589 34.7292C63.2589 34.2491 63.2589 33.7664 63.2589 33.2862V28.5636H58.3487V30.0119C58.3487 31.6045 58.3488 33.2521 58.3725 34.863C58.3725 35.1858 58.8582 35.5032 59.1433 35.5111C59.6871 35.5295 60.2257 35.5321 60.6824 35.5321L61.7093 35.5347ZM21.7897 35.5347H22.5025C22.613 35.5444 22.7244 35.5314 22.8297 35.4967C22.935 35.4619 23.0321 35.4061 23.1149 35.3327C23.188 35.2496 23.2434 35.1525 23.2774 35.0473C23.3115 34.9422 23.3235 34.8313 23.3129 34.7214C23.3129 34.0786 23.3129 33.4358 23.3129 32.7956V28.5584H18.4028V29.9909C18.4028 31.6674 18.4028 33.2521 18.4265 34.8735C18.4265 35.191 18.9175 35.5032 19.2185 35.5137C19.7464 35.5321 20.2929 35.5321 20.7443 35.5321L21.7897 35.5347ZM32.1141 27.0786H72.8468V23.2769H8.84398V27.0786H32.1141ZM13.3132 17.9483C11.6263 17.9483 10.9373 18.6304 10.9373 20.2938V21.7211H70.793L70.7771 21.443C70.7639 21.2383 70.7587 21.0311 70.7534 20.8212C70.7537 20.3193 70.7122 19.8182 70.6293 19.3231C70.455 18.4546 69.7449 17.9561 68.6811 17.9535C67.6172 17.9509 66.63 17.9535 65.6057 17.9535H13.3079L13.3132 17.9483Z" fill="#1A1A1A"/>
<path d="M40.81 55.5C40.2435 55.4866 40.1046 54.986 40.0912 54.5683C40.0912 54.4157 40.0912 54.2658 40.0912 54.1132V52.4132L39.2362 53.2485L38.5547 53.9124C38.3646 54.1249 38.1009 54.2569 37.8172 54.2819C37.7287 54.2804 37.6415 54.2606 37.561 54.2238C37.4805 54.1869 37.4086 54.1338 37.3496 54.0677C37.1331 53.8482 36.9166 53.4841 37.5206 52.8683C37.7691 52.6166 38.0176 52.3703 38.2688 52.1213C38.7257 51.6716 39.1961 51.2057 39.6397 50.7238C39.8944 50.4378 40.0475 50.0754 40.0752 49.6931C40.1073 48.9569 40.1019 48.2126 40.0966 47.4228C40.0966 47.1069 40.0966 46.7776 40.0966 46.4349V45.8165L39.6449 46.2422L39.3777 46.5099C39.2334 46.6438 39.1105 46.7455 39.0197 46.8526L37.3389 48.5339C36.2005 49.6744 35.0613 50.8131 33.9211 51.95C33.7365 52.1508 33.4822 52.2734 33.2104 52.2927C33.0937 52.2914 32.9797 52.258 32.8807 52.1962C32.7817 52.1343 32.7016 52.0464 32.6492 51.942C32.4461 51.5752 32.5182 51.27 32.9003 50.8898C34.2738 49.5227 35.6447 48.151 37.0129 46.7749L37.9481 45.8352C38.0604 45.7255 38.1672 45.6103 38.3062 45.4631L38.9903 44.7403H36.5853C36.0936 44.7403 35.4443 44.7403 34.7949 44.759C34.5349 44.7996 34.2989 44.935 34.1322 45.1392C33.7368 45.5274 33.344 45.9209 32.9538 46.3145L31.9571 47.3104C31.7708 47.5274 31.5089 47.6652 31.2249 47.6959C31.1358 47.6926 31.0484 47.6715 30.9676 47.6338C30.8869 47.596 30.8144 47.5425 30.7546 47.4764C30.3057 47.0373 30.6611 46.5367 30.9096 46.277L31.4147 45.7576L31.7941 45.3694C31.8335 45.3265 31.8627 45.2752 31.8796 45.2195L31.9223 45.1044L32.0693 44.7376H30.7974C30.629 44.7376 30.4606 44.7376 30.295 44.7376C29.6563 44.7376 29.333 44.4699 29.333 43.9933C29.333 43.6613 29.4399 43.2785 30.2923 43.2651H32.43L31.5803 42.4004C31.3131 42.1326 31.0967 41.9104 30.8775 41.6775C30.4821 41.2652 30.4313 40.8315 30.7413 40.5129C30.8028 40.4467 30.8772 40.3938 30.9599 40.3574C31.0427 40.321 31.1319 40.302 31.2223 40.3014C31.4798 40.3172 31.7211 40.4323 31.8956 40.6227C32.1628 40.8904 32.4514 41.1742 32.724 41.4526C33.1622 41.897 33.6165 42.3548 34.0868 42.7912C34.3875 43.0593 34.7677 43.2211 35.169 43.2517C35.5618 43.2705 35.9948 43.2785 36.5265 43.2785H37.3736H38.218H38.3516L38.8433 42.6172L38.5761 42.4646C38.5012 42.4271 38.4211 42.395 38.3383 42.3629C38.2152 42.3199 38.0997 42.2575 37.9962 42.1782C36.2326 40.438 34.5037 38.6978 32.8977 37.0914C32.6304 36.8237 32.3632 36.39 32.7133 35.9724C32.7732 35.8913 32.8508 35.825 32.9402 35.7786C33.0296 35.7322 33.1284 35.7069 33.229 35.7046C33.5036 35.7288 33.7583 35.8583 33.9399 36.0661C35.0551 37.1744 36.1676 38.2864 37.2774 39.4019L38.9903 41.118C39.0998 41.2277 39.2148 41.3348 39.3644 41.474L39.6316 41.7418L40.0832 42.1648V40.612C40.0832 39.6937 40.0832 38.8263 40.0672 37.9669C40.0227 37.7094 39.8859 37.4771 39.6824 37.3136C39.3056 36.9281 38.9315 36.5533 38.5574 36.1812C38.1833 35.809 37.8546 35.4797 37.5072 35.1264C37.0609 34.6712 37.0102 34.2643 37.3549 33.9243C37.4141 33.8589 37.4857 33.806 37.5655 33.7688C37.6454 33.7315 37.7319 33.7107 37.8199 33.7074C38.1055 33.7376 38.3685 33.8766 38.5547 34.0956C38.7658 34.3018 38.9716 34.524 39.172 34.7408C39.2629 34.8426 39.3564 34.9416 39.4392 35.0407L39.5862 35.196L40.0859 34.9015V34.7489C40.0859 34.6043 40.0859 34.4597 40.0859 34.3152C40.0859 34.0019 40.0859 33.678 40.0859 33.3647C40.1019 32.9765 40.2382 32.5134 40.802 32.5C41.43 32.5 41.5396 33.0542 41.5529 33.3862C41.5663 33.7181 41.5529 34.0019 41.5529 34.3634C41.5529 34.5481 41.5529 34.7515 41.5529 34.9764V35.5654L42.4187 34.706C42.6726 34.4544 42.8864 34.2402 43.1028 34.0314C43.2897 33.8201 43.5492 33.6872 43.8296 33.6592C43.9197 33.6619 44.0082 33.6833 44.0896 33.722C44.171 33.7607 44.2436 33.8159 44.3026 33.8841C44.4282 34.01 44.8049 34.4008 44.1262 35.0916C43.8804 35.3432 43.6292 35.5922 43.378 35.8385C42.9211 36.2883 42.4508 36.7541 42.0099 37.236C41.7533 37.5211 41.5991 37.8839 41.5716 38.2667C41.5396 39.0003 41.5449 39.7419 41.5502 40.5263C41.5502 40.8369 41.5502 41.1581 41.5502 41.4928V42.1005L41.9965 41.6909L42.2637 41.45C42.4133 41.3161 42.531 41.2144 42.6352 41.1073C43.2426 40.4969 43.8501 39.8882 44.4576 39.2814C45.5478 38.1891 46.639 37.0977 47.731 36.0072C47.9131 35.8036 48.167 35.6788 48.4392 35.6591C48.5569 35.6614 48.6717 35.6964 48.7708 35.7602C48.8699 35.824 48.9493 35.9142 49.0003 36.0206C49.214 36.3954 49.1339 36.6925 48.7064 37.1182C47.9065 37.9124 47.1102 38.7085 46.3175 39.5063L43.6987 42.1219C43.5889 42.2195 43.4688 42.3048 43.3406 42.3763L43.1295 42.5074L42.9291 42.644L43.2524 43.2383H45.0855C45.5826 43.2383 46.2373 43.2383 46.9026 43.2196C47.1375 43.1786 47.3483 43.0505 47.4932 42.8608L47.552 42.8019C47.9047 42.4539 48.2547 42.1005 48.6048 41.7498C48.9549 41.3991 49.3504 41.0029 49.7245 40.6307C49.9072 40.4275 50.1605 40.302 50.4326 40.28C50.6034 40.2822 50.7665 40.3514 50.8869 40.4728C50.9546 40.5321 51.0092 40.6048 51.0474 40.6864C51.0856 40.7679 51.1065 40.8566 51.1087 40.9466C51.0907 41.2263 50.9641 41.4877 50.7559 41.6748C50.5395 41.8944 50.3016 42.1032 50.0691 42.3067C49.9623 42.403 49.8527 42.4967 49.7485 42.5931L49.5936 42.7323L49.8608 43.249H50.9644C51.1514 43.249 51.3412 43.249 51.5309 43.249C51.8863 43.249 52.3112 43.3909 52.3326 43.9451C52.3459 44.4083 52.0653 44.6867 51.5309 44.7135C51.3492 44.7135 51.1675 44.7135 50.9724 44.7135H50.5101H49.8928H49.2569L50.1012 45.5755C50.3524 45.8433 50.5716 46.0548 50.7853 46.2797C50.9991 46.5045 51.3492 47.0052 50.9243 47.4416C50.8648 47.5118 50.7912 47.5689 50.7084 47.609C50.6255 47.6491 50.5352 47.6714 50.4433 47.6745C50.1671 47.6473 49.9117 47.5151 49.7298 47.305C49.4626 47.0373 49.1953 46.7696 48.9281 46.5019C48.4792 46.0441 48.0116 45.5729 47.5332 45.1258C47.2611 44.8876 46.9185 44.7455 46.5579 44.7215C46.1464 44.7054 45.6948 44.7001 45.139 44.7001H43.2845L43.0173 45.19L43.1669 45.3292L43.4903 45.6264C43.7147 45.8326 43.9445 46.0441 44.161 46.2609L44.4282 46.5286C45.8765 47.9743 47.3676 49.4736 48.8373 50.9487C49.1874 51.3048 49.2168 51.7519 48.9095 52.0598C48.8481 52.1243 48.7743 52.1756 48.6925 52.2106C48.6108 52.2455 48.5227 52.2635 48.4338 52.2632C48.1923 52.2516 47.9637 52.1504 47.7924 51.9795C47.7043 51.8991 47.6214 51.8135 47.5252 51.7278L47.413 51.6127L42.6031 46.7937C42.5095 46.7 42.416 46.6116 42.2744 46.4778L41.5556 45.7897V46.4162C41.5556 46.6384 41.5556 46.8419 41.5556 47.032C41.5788 47.355 41.5716 47.6794 41.5342 48.0011C41.283 49.6369 41.8014 50.9059 43.1375 51.8858C43.4612 52.1456 43.7592 52.4361 44.0274 52.7532L44.2331 52.9807C44.4736 53.2485 44.6794 53.6367 44.2946 54.0516C44.2327 54.122 44.1567 54.1784 44.0715 54.2171C43.9863 54.2559 43.8938 54.2761 43.8002 54.2765C43.5685 54.2668 43.3486 54.1714 43.1829 54.0088C43.0734 53.9124 42.9718 53.8053 42.8676 53.7009L42.6806 53.5028L42.2878 53.1253L41.5529 52.4239V53.0503C41.5529 53.2511 41.5529 53.4332 41.5529 53.6045C41.5529 53.9526 41.5529 54.2497 41.5529 54.5496C41.5529 54.9833 41.406 55.5 40.8234 55.5H40.81Z" fill="#1A1A1A"/>
</svg>
