<svg width="81" height="81" viewBox="0 0 81 81" fill="none" xmlns="http://www.w3.org/2000/svg">
<path d="M41.595 32.0964C41.595 31.2286 41.595 30.4303 41.595 29.6385C41.6125 27.6664 42.7368 26.5665 44.731 26.5622C45.2044 26.5622 45.6799 26.5622 46.1533 26.5622C47.8605 26.5882 49.0285 27.725 49.0723 29.4237C49.0942 30.2914 49.0723 31.1592 49.0723 32.0552H50.9987C51.2594 30.6428 51.9562 29.3452 52.9929 28.3411C55.3334 26.035 59.5674 26.0198 61.9189 28.3173C62.9041 29.2404 63.5795 30.4406 63.854 31.7558C63.9175 32.0769 64.0863 32.1051 64.3492 32.1029C65.3508 32.1029 66.3545 32.1029 67.356 32.1029C67.5202 32.0988 67.6844 32.109 67.8469 32.1333C68.075 32.1629 68.2842 32.2742 68.4352 32.446C68.5862 32.6178 68.6684 32.8384 68.6665 33.0662C68.659 33.3027 68.5574 33.5266 68.3837 33.6892C68.21 33.8518 67.9784 33.9398 67.7395 33.9339C66.6642 33.9571 65.5882 33.9571 64.5114 33.9339C64.1104 33.9339 63.9241 33.999 63.8255 34.4524C63.5003 35.8621 62.7074 37.1232 61.5732 38.0344C60.4391 38.9455 59.0292 39.4542 57.5687 39.479C54.6278 39.5419 51.8928 37.5374 51.1937 34.6932C51.025 34.012 50.7379 33.8732 50.1374 33.9361C49.7841 33.9538 49.43 33.9538 49.0767 33.9361C49.0767 34.8039 49.0767 35.6543 49.0767 36.4939C49.0767 37.4658 48.7897 38.3357 47.9503 38.8911C47.5325 39.172 47.0561 39.3559 46.5565 39.4291C45.8134 39.5101 45.0643 39.5217 44.319 39.4638C42.7192 39.3705 41.709 38.3531 41.6125 36.7607C41.5687 36.0404 41.5972 35.318 41.595 34.5913C41.595 34.396 41.595 34.2029 41.595 33.9404C40.9989 33.9404 40.4576 33.9209 39.9207 33.9556C39.8024 33.9556 39.6292 34.1487 39.5963 34.281C38.9542 36.8995 37.3369 38.5765 34.7094 39.2924C31.924 40.0517 28.5731 38.5158 27.3766 35.9081C27.1005 35.305 26.9011 34.6672 26.6425 33.9817H24.7951C24.7951 34.7887 24.7951 35.5784 24.7951 36.368C24.7951 38.3726 23.6774 39.4812 21.6481 39.4898C21.0476 39.4898 20.4449 39.4898 19.8467 39.4508C19.1847 39.4056 18.5632 39.1191 18.1022 38.6467C17.6412 38.1743 17.3733 37.5495 17.3505 36.893C17.3067 35.9428 17.3505 34.9861 17.3505 33.9404H16.6076C15.6412 33.9404 14.6747 33.9404 13.7105 33.9404C13.0815 33.9404 12.6892 33.5825 12.6673 33.0575C12.6454 32.5325 13.0596 32.1094 13.6973 32.0964C14.8807 32.0769 16.0642 32.0964 17.333 32.0964C17.333 31.2286 17.333 30.3782 17.333 29.5387C17.3221 28.6015 17.6157 27.8031 18.363 27.1978C19.4719 26.3062 22.5268 26.2585 23.6686 27.1154C24.0287 27.3804 24.3196 27.7268 24.5171 28.1257C24.7145 28.5246 24.8128 28.9644 24.8038 29.4085C24.8038 30.2763 24.8038 31.144 24.8038 32.0487H26.7323C26.9963 30.6496 27.6842 29.3633 28.7046 28.3607C31.3783 25.7074 36.2982 26.0979 38.4064 29.2089C38.9301 29.9834 39.1953 30.9293 39.5985 31.7884C39.6308 31.86 39.6782 31.9241 39.7375 31.9761C39.7969 32.0281 39.8668 32.0669 39.9426 32.0899C40.4664 32.1159 40.9901 32.0964 41.595 32.0964ZM57.4439 37.6371C58.365 37.6418 59.2669 37.3761 60.0356 36.8735C60.8043 36.3709 61.4052 35.6541 61.7624 34.8135C62.1196 33.9729 62.2171 33.0464 62.0425 32.151C61.8679 31.2556 61.4292 30.4315 60.7817 29.7829C60.1341 29.1343 59.3068 28.6903 58.4045 28.5069C57.5021 28.3236 56.565 28.4092 55.7118 28.7529C54.8585 29.0967 54.1273 29.6831 53.6106 30.438C53.0939 31.193 52.8149 32.0827 52.8088 32.9946C52.8018 34.2186 53.2862 35.3952 54.1553 36.2658C55.0245 37.1364 56.2074 37.6297 57.4439 37.6371ZM37.8431 33.0293C37.844 32.1171 37.5716 31.2251 37.0604 30.4661C36.5492 29.7072 35.8221 29.1153 34.9711 28.7655C34.1201 28.4156 33.1833 28.3234 32.2794 28.5005C31.3755 28.6776 30.5449 29.1161 29.8927 29.7605C29.2405 30.405 28.796 31.2264 28.6153 32.1209C28.4347 33.0154 28.5261 33.9428 28.8779 34.7859C29.2298 35.629 29.8263 36.3499 30.592 36.8574C31.3577 37.365 32.2582 37.6363 33.1797 37.6371C34.4132 37.6315 35.5948 37.1444 36.4678 36.2818C37.3409 35.4191 37.8351 34.2504 37.8431 33.0293ZM22.9257 33.0575C22.9257 31.8838 22.9257 30.7123 22.9257 29.5387C22.9257 28.7663 22.5619 28.4257 21.7774 28.4127C21.2492 28.4127 20.7211 28.3954 20.1929 28.4127C19.5618 28.4409 19.2111 28.7837 19.209 29.4085C19.1958 31.8252 19.1958 34.242 19.209 36.6587C19.209 37.2879 19.553 37.6089 20.2016 37.635C20.7101 37.6545 21.2207 37.635 21.7357 37.635C22.5991 37.635 22.9257 37.3052 22.9323 36.457C22.9323 35.3289 22.9257 34.1986 22.9257 33.0575ZM43.4753 33.0271C43.4753 34.216 43.4644 35.4135 43.4753 36.598C43.4753 37.3031 43.8084 37.6176 44.5141 37.6393C45.0422 37.6567 45.5704 37.6545 46.0985 37.6393C46.848 37.6198 47.1745 37.2879 47.1943 36.5286C47.2074 36.0947 47.1943 35.6608 47.1943 35.2269C47.1943 33.3525 47.1943 31.476 47.1943 29.6016C47.1943 28.7555 46.8436 28.4192 46.0021 28.4084C45.5463 28.4084 45.0904 28.4084 44.6346 28.4084C43.8084 28.4084 43.4775 28.7381 43.4709 29.5604C43.4665 30.7275 43.4731 31.873 43.4753 33.0271Z" fill="#1A1A1A"/>
<path d="M29.6719 23.4924C29.7119 22.766 30.0087 22.0713 30.5172 21.5139C30.6659 21.3468 30.8336 21.1928 30.9894 21.0279C31.9574 19.9801 31.9338 19.8087 30.7179 19.0429C29.6153 18.3487 29.3296 16.8865 30.1017 15.6434C30.3685 15.2095 30.7911 14.8603 31.0862 14.4372C31.3377 14.0825 31.537 13.6988 31.6788 13.2961C31.8606 12.7668 32.2951 12.4283 32.8286 12.5129C32.9602 12.5344 33.0859 12.5795 33.1984 12.6457C33.311 12.7118 33.4082 12.7978 33.4845 12.8985C33.5609 12.9993 33.6148 13.1129 33.6432 13.2329C33.6717 13.3529 33.6741 13.4768 33.6503 13.5976C33.575 14.3767 33.2175 15.11 32.635 15.6803C32.3894 15.9139 32.1585 16.1602 31.9433 16.4179C31.5018 16.9668 31.5536 17.392 32.1911 17.7044C34.0398 18.6112 33.9879 20.5528 32.8664 21.8805C32.3281 22.5183 31.6859 23.0563 31.5442 23.9328C31.4734 24.3667 30.9823 24.5641 30.4724 24.4816C29.9624 24.3992 29.6601 24.0109 29.6719 23.4924Z" fill="#1A1A1A"/>
<path d="M51.6558 13.5446C51.6047 14.2737 51.2954 14.9674 50.7753 15.5198C50.6502 15.6565 50.5085 15.7846 50.381 15.9213C49.3777 17.0066 49.399 17.1628 50.6549 17.9833C51.7219 18.68 51.9934 20.1256 51.2356 21.3497C50.9665 21.7838 50.5463 22.1354 50.2512 22.5587C49.9983 22.9134 49.7975 23.2973 49.654 23.7004C49.4746 24.23 49.0378 24.5686 48.5114 24.4882C48.2466 24.4473 48.0103 24.3114 47.8545 24.1103C47.6987 23.9093 47.636 23.6595 47.6804 23.416C47.7542 22.6369 48.1119 21.9035 48.6955 21.3345C48.8561 21.1761 49.0095 21.0133 49.1677 20.8462C49.9089 20.0149 49.8617 19.711 48.908 19.1467C47.4396 18.2785 47.2555 16.4618 48.4996 15.0813C49.052 14.4736 49.6516 13.9331 49.7886 13.0736C49.8594 12.6395 50.3456 12.4398 50.8579 12.5158C51.3702 12.5918 51.6653 12.9781 51.6558 13.5446Z" fill="#1A1A1A"/>
<path d="M42.6664 19.909C42.6257 20.7017 42.293 21.4581 41.7231 22.054C41.2161 22.5767 40.6808 23.0626 40.5982 23.8369C40.5487 24.2858 39.9969 24.5635 39.5346 24.4875C39.2777 24.4576 39.0437 24.3366 38.8824 24.1502C38.7212 23.9638 38.6455 23.7268 38.6715 23.4898C38.7213 22.7266 39.0485 22.001 39.6007 21.4294C39.8946 21.1393 40.1716 20.8353 40.4308 20.5184C40.8246 20.0044 40.7609 19.6097 40.1619 19.3169C38.1574 18.33 38.4074 16.2674 39.5512 15.0159C40.0653 14.4542 40.6501 13.9575 40.7445 13.1442C40.7964 12.6995 41.3576 12.4371 41.8245 12.513C42.0701 12.5488 42.2922 12.6681 42.4467 12.8472C42.6013 13.0263 42.6772 13.2522 42.6594 13.4803C42.6176 14.2435 42.2979 14.9716 41.7515 15.5473C41.4944 15.8206 41.2279 16.0852 40.9873 16.3693C40.4874 16.9614 40.544 17.3518 41.2397 17.7292C41.6725 17.9367 42.0347 18.25 42.2865 18.6345C42.5382 19.0191 42.6696 19.4601 42.6664 19.909Z" fill="#1A1A1A"/>
<path d="M58.6993 59.5C58.3043 59.4963 57.9099 59.4723 57.5175 59.4282C57.2715 59.4001 57.046 59.2802 56.888 59.0933C56.7299 58.9064 56.6514 58.6669 56.6689 58.4247C56.7351 57.9171 57.0211 57.551 57.5718 57.5278C58.3135 57.4907 59.0567 57.4907 59.7984 57.5278C60.342 57.5579 60.6445 57.9171 60.6611 58.4548C60.6741 58.5705 60.6636 58.6876 60.63 58.7992C60.5964 58.9108 60.5404 59.0148 60.4654 59.105C60.3904 59.1951 60.2977 59.2698 60.1929 59.3245C60.0881 59.3792 59.9733 59.4128 59.8551 59.4235C59.4714 59.4684 59.0857 59.494 58.6993 59.5Z" fill="#1A1A1A"/>
<path d="M31.6786 59.5C31.2727 59.4722 30.8573 59.4792 30.4537 59.412C30.2239 59.3674 30.0181 59.2438 29.8738 59.0637C29.7296 58.8835 29.6564 58.6589 29.6676 58.4306C29.6788 58.2022 29.7737 57.9854 29.935 57.8196C30.0962 57.6537 30.3131 57.5499 30.5463 57.5269C31.2916 57.4899 32.0394 57.4922 32.7824 57.5269C32.9021 57.5287 33.0202 57.5539 33.1297 57.601C33.2392 57.6482 33.3379 57.7164 33.4198 57.8015C33.5017 57.8866 33.5653 57.987 33.6067 58.0966C33.6481 58.2061 33.6665 58.3227 33.6607 58.4394C33.6742 58.5552 33.664 58.6724 33.6308 58.7844C33.5976 58.8964 33.542 59.0008 33.4672 59.0916C33.3923 59.1825 33.2998 59.258 33.1949 59.3138C33.09 59.3696 32.9748 59.4045 32.856 59.4166C32.4667 59.4815 32.0726 59.4815 31.6786 59.5Z" fill="#1A1A1A"/>
<path d="M68.6622 43.7456C68.6622 42.8245 68.3402 42.5 67.4137 42.5H13.8954C12.9995 42.5 12.6666 42.831 12.6666 43.7107C12.6666 45.9928 12.6666 48.2836 12.6666 50.5591C12.6644 50.8646 12.731 51.1667 12.8615 51.4432C14.7213 55.0492 16.6007 58.6444 18.467 62.2461C18.5618 62.4632 18.7221 62.6456 18.9258 62.7681C19.1295 62.8906 19.3665 62.9471 19.6039 62.9298C20.0727 62.9189 20.5414 62.9298 21.0386 62.9298C21.0386 63.165 21.0649 63.3436 21.0649 63.5199C21.0649 64.7698 21.0649 66.0198 21.0649 67.2697C21.0649 68.169 21.3804 68.4826 22.2763 68.4848C23.8973 68.4848 25.5204 68.4848 27.1414 68.4848C28.2541 68.4848 28.5214 68.2169 28.5214 67.102V62.9647H52.7986C52.7986 64.4737 52.7986 65.937 52.7986 67.4025C52.7986 68.1233 53.1535 68.4913 53.8698 68.4913C55.6353 68.5029 57.4023 68.5029 59.1708 68.4913C59.898 68.4913 60.2441 68.1407 60.2507 67.4199C60.2617 66.2789 60.2507 65.1379 60.2507 63.9968V62.9233C60.737 62.9233 61.1554 62.9015 61.565 62.9233C62.2068 62.9625 62.6121 62.7055 62.9078 62.1241C64.7259 58.5987 66.5703 55.0884 68.384 51.5608C68.5453 51.2398 68.6328 50.8873 68.6403 50.5286C68.6754 48.2727 68.6666 46.0102 68.6622 43.7456ZM26.6178 66.5881H22.9663V62.9581H26.6178V66.5881ZM58.3472 66.5881H54.6781V62.9712H58.3472V66.5881ZM63.2758 57.3879C62.7238 58.4484 62.1564 59.5023 61.6285 60.5737C61.5676 60.7393 61.4524 60.8797 61.3013 60.9722C61.1503 61.0646 60.9723 61.1038 60.7961 61.0832C56.5488 61.0637 52.3014 61.0724 48.054 61.0724C38.9788 61.0724 29.9014 61.0615 20.824 61.0898C20.1515 61.0898 19.7791 60.909 19.56 60.2972C19.4024 59.9292 19.2247 59.5701 19.0278 59.2214H20.3662C22.3157 59.2214 24.2674 59.2214 26.217 59.2214C26.4711 59.2301 26.7251 59.2007 26.9705 59.1343C27.1539 59.0689 27.3112 58.9465 27.4194 58.7854C27.5275 58.6243 27.5806 58.4329 27.5711 58.2395C27.5615 58.046 27.4897 57.8608 27.3662 57.711C27.2427 57.5612 27.074 57.4548 26.8851 57.4075C26.7065 57.3712 26.524 57.3565 26.3419 57.364C23.5884 57.364 20.8371 57.364 18.042 57.364C17.1001 55.5566 16.1451 53.7275 15.1594 51.8395H66.165L63.2758 57.3879ZM66.7674 49.895H43.4014H41.649H14.5658V44.3879H19.2578H21.0584H22.986V44.3705H24.769V44.3879H45.3729H47.1603H56.5597V44.3705H58.3362V44.3879H64.8683V44.4141H66.7696L66.7674 49.895Z" fill="#1A1A1A"/>
</svg>
