<svg width="80" height="80" viewBox="0 0 80 80" fill="none" xmlns="http://www.w3.org/2000/svg">
<path d="M13.6204 64.9974C12.5284 64.9974 12.1931 64.6648 12.1905 63.5795C12.1905 62.7734 12.1905 61.9681 12.1905 61.1638V59.9288L11.6705 59.72L10.9399 60.9884C10.3644 61.9836 9.78989 62.977 9.21618 63.9688C9.09257 64.1999 8.94626 64.4184 8.77939 64.621C8.68406 64.7346 8.5649 64.8262 8.43018 64.8895C8.29547 64.9527 8.14845 64.986 7.99942 64.9871C7.82698 64.9856 7.6578 64.9404 7.50803 64.8556C7.29856 64.732 7.13954 64.5393 7.05876 64.3112C6.97797 64.0832 6.98057 63.8342 7.06606 63.6078C7.10585 63.4835 7.1581 63.3634 7.22205 63.2495C11.4443 56.4252 14.9437 49.0982 18.3262 42.0083C19.3662 39.8066 20.4634 37.5302 21.5579 35.3052C23.7106 30.9224 25.8712 26.4339 27.9641 22.1027C28.9295 20.1021 29.8958 18.1023 30.8629 16.1034C31.3101 15.1805 31.5623 15.0309 31.9913 15.0309C32.3066 15.0459 32.6191 15.0978 32.9221 15.1856L34.352 15.5466C36.2603 16.0338 38.2311 16.5366 40.2044 16.8485C41.0711 16.986 41.9474 17.0549 42.8251 17.0548C45.1339 17.0274 47.4207 16.6053 49.5848 15.807C49.889 15.6987 50.1932 15.5801 50.4948 15.4615C50.7548 15.3584 51.0148 15.2578 51.2748 15.1598C51.5072 15.0653 51.7544 15.0112 52.0054 15C52.346 15 52.6475 15.1444 53.0141 15.8534C53.827 17.4294 54.6382 19.0055 55.4476 20.5816L59.2695 28.0143C63.6295 36.486 68.1352 45.249 72.5472 53.8754C72.8175 54.4334 72.9621 55.0431 72.971 55.6621C73.0074 57.6833 73.0022 59.7406 72.9944 61.7309C72.9944 62.3497 72.9944 62.9659 72.9944 63.5846C72.9944 64.67 72.659 65 71.5618 65H13.584L13.6204 64.9974ZM54.8627 57.9643C56.0404 59.4777 57.1532 60.9085 58.2737 62.3755C58.4043 62.561 58.5806 62.7103 58.7859 62.8092C58.9911 62.908 59.2185 62.9531 59.4463 62.9401C61.3312 62.9401 63.2005 62.9401 65.0725 62.9401H70.9326V56.023H53.3547L54.8627 57.9643ZM30.499 21.7366L30.4028 21.899C30.3647 21.959 30.3299 22.0209 30.2988 22.0847L29.3784 23.9847C24.4126 34.237 19.4502 44.4919 14.4914 54.7494C14.3524 55.0539 14.2815 55.3846 14.2834 55.7188C14.2834 57.3224 14.2834 58.9517 14.2834 60.5295V62.9143H21.5631V58.7532C21.5631 56.0204 21.5631 53.2885 21.5631 50.5574C21.5631 49.5493 21.7763 49.2915 22.7669 49.0982C24.6735 48.7269 26.5801 48.3608 28.4867 47.9999L31.0059 47.5178V20.9039L30.499 21.7366ZM24.4516 62.9143H39.713L32.0797 50.3718L24.4516 62.9143ZM33.1405 47.5126L33.3277 47.5668L33.5123 47.6209C33.6293 47.657 33.728 47.6854 33.832 47.7086L36.5411 48.3325L41.3484 49.4411C42.4247 49.6989 42.6119 49.9258 42.6119 51.0137C42.6119 53.5686 42.6119 62.8963 42.6119 62.8963H50.0788L50.1074 62.672C50.1074 62.6359 50.1074 62.6049 50.1204 62.574C50.134 62.5051 50.1418 62.4353 50.1438 62.3652V61.3081C50.1438 59.4158 50.1438 57.459 50.1438 55.5332C50.1306 55.2636 50.0597 55 49.9359 54.7597C44.6043 43.8835 39.2667 33.0099 33.923 22.1388C33.8709 22.0366 33.8128 21.9376 33.7489 21.8423C33.7125 21.7856 33.6708 21.7211 33.6266 21.6464L33.1431 20.8549L33.1405 47.5126ZM52.2575 62.8834H56.0508L52.2575 58.003V62.8834ZM23.6898 51.024V60.166L29.9738 49.8329L23.6898 51.024ZM34.6276 50.5574L40.0458 59.457L40.5112 59.2199V51.3721L34.8434 50.083L34.6276 50.5574ZM37.9711 25.5883L38.0595 25.7971C38.1089 25.9157 38.1479 26.0086 38.1921 26.0988L40.8154 31.4484C44.3304 38.613 47.9651 46.0173 51.527 53.3082C51.6155 53.514 51.7692 53.6857 51.9647 53.7973C52.1603 53.9089 52.3872 53.9544 52.6111 53.927H62.6234H70.2879L51.462 17.3177L51.2384 17.408C48.5259 18.5314 45.6139 19.1047 42.6743 19.0941C39.9412 19.0714 37.2261 18.6536 34.6146 17.854L34.0504 17.689L34.3104 18.2046L34.8486 19.3132C35.3192 20.2826 35.7612 21.1978 36.2291 22.0898C36.4119 22.4225 36.7176 22.672 37.0819 22.7859C37.9841 23.0154 38.9018 23.2113 39.8014 23.3995L40.7608 23.6058C41.5408 23.7785 41.9437 24.2477 41.8163 24.8639C41.7097 25.3795 41.312 25.6631 40.7218 25.6631C40.5969 25.6626 40.4723 25.6496 40.35 25.6244L38.9201 25.3666L37.7709 25.1552L37.9711 25.5883Z" fill="#1A1A1A"/>
<path d="M45.9975 26C45.8655 25.9988 45.7349 25.9713 45.6135 25.919C45.4921 25.8668 45.3821 25.7908 45.29 25.6956C45.1064 25.5136 45.0021 25.2657 45 25.0063C45.0099 24.7426 45.1185 24.4924 45.3039 24.3058C45.4893 24.1192 45.7379 24.01 46 24C46.2597 24.0055 46.5075 24.1102 46.6932 24.2929C46.879 24.4756 46.9886 24.7226 47 24.9836C47.0003 25.2429 46.9011 25.4922 46.7232 25.6797C46.5453 25.8671 46.3024 25.9783 46.045 25.9899L45.9975 26Z" fill="#1A1A1A"/>
</svg>
