<svg width="81" height="81" viewBox="0 0 81 81" fill="none" xmlns="http://www.w3.org/2000/svg">
<path d="M63.9823 37.4514C63.9823 39.4601 63.9426 41.4365 63.9986 43.4106C64.029 44.4958 63.5525 45.2 62.6626 45.7195C61.2425 46.5345 59.666 46.8947 58.0684 47.1048C56.2793 47.3357 54.4738 47.4396 52.6731 47.5666C52.311 47.592 52.1429 47.7121 52.0845 48.0284C51.9164 48.9404 51.3184 49.3745 50.4682 49.7093C44.1727 52.24 37.3097 53.0703 30.5826 52.1151C27.3336 51.6535 24.1563 50.7893 21.1257 49.543C20.8638 49.4485 20.6278 49.295 20.4364 49.0946C20.2451 48.8942 20.1036 48.6525 20.0232 48.3886C18.3673 43.6992 16.6832 39.0191 15.0203 34.3344C14.9746 34.1408 14.8887 33.9588 14.7681 33.7998C14.6475 33.6408 14.4947 33.5084 14.3196 33.4108C14.0484 33.2597 13.8006 33.0707 13.5839 32.8498C12.3717 31.7138 12.3553 30.25 13.5675 29.114C14.7797 27.978 16.3586 27.4747 17.9398 27.066C21.8917 26.0432 25.9394 25.7222 29.9964 25.5768C33.0631 25.466 36.1368 25.4983 39.2058 25.4659H39.7313V24.8102C39.7313 22.0811 39.7593 19.3543 39.7149 16.6275C39.6986 15.5908 40.119 14.8197 41.0089 14.4364C42.1984 13.8817 43.4472 13.4611 44.7319 13.1827C49.924 12.2245 55.1255 12.2337 60.2802 13.4736C61.211 13.7318 62.1056 14.1042 62.9429 14.5819C63.6903 14.979 64.0313 15.674 63.9986 16.5583C63.9589 17.6481 63.9986 18.7425 63.9986 19.853C64.426 19.9269 64.8278 19.9708 65.2131 20.0839C66.1979 20.3431 67.069 20.9157 67.6917 21.7132C68.3144 22.5108 68.654 23.4888 68.6582 24.4962C68.6769 27.1468 68.6582 29.8067 68.6582 32.448C68.6465 35.3226 66.9835 37.142 63.9823 37.4514ZM17.1807 34.7015C17.1972 34.8115 17.2214 34.9203 17.2532 35.0271C18.7293 39.1692 20.2085 43.3075 21.6909 47.4419C21.8021 47.6736 21.9971 47.8557 22.2374 47.9522C24.7282 48.9789 27.3324 49.7128 29.9964 50.1387C36.6408 51.2522 43.468 50.5011 49.7021 47.9707C49.9855 47.837 50.2069 47.6018 50.3211 47.3126C51.7762 43.309 53.2033 39.2939 54.635 35.2787C54.6981 35.1056 54.7425 34.9255 54.8102 34.6992C48.6067 36.2992 42.3262 36.4863 36.0363 36.4886C29.7465 36.4909 23.4192 36.3062 17.1807 34.7015ZM52.8973 45.7426C54.1399 45.6502 55.2656 45.5994 56.3821 45.4725C58.0778 45.2785 59.7641 45.0107 61.357 44.3503C61.8965 44.1194 62.1371 43.8147 62.1347 43.182C62.1098 35.1348 62.1028 27.0876 62.1137 19.0403V18.4954C55.4252 20.4014 48.3281 20.4014 41.6395 18.4954V25.3505C45.129 25.7638 48.5647 26.1147 51.9817 26.5973C53.9203 26.8721 55.8238 27.3869 57.5265 28.4167C59.9019 29.8505 59.9229 31.9516 57.6176 33.4662C57.3412 33.6579 57.1295 33.9274 57.0104 34.2397C56.2116 36.4008 55.4455 38.5735 54.6747 40.7439C54.1025 42.3739 53.5163 43.9994 52.8973 45.7426ZM36.2395 34.6599C40.794 34.623 45.5681 34.4752 50.3001 33.7364C52.3531 33.4131 54.3968 33.0437 56.2863 32.1202C56.7862 31.8893 57.4004 31.6238 57.4168 30.9911C57.4331 30.3169 56.8072 30.0098 56.277 29.8228C54.9601 29.315 53.6102 28.8954 52.2363 28.5668C47.7169 27.6086 43.1157 27.3939 38.5098 27.3061C33.3714 27.2045 28.2517 27.3431 23.1553 27.9988C20.9388 28.2782 18.734 28.6384 16.6319 29.4234C16.0192 29.6544 15.4403 29.965 14.9105 30.3469C14.385 30.7279 14.4013 31.192 14.9105 31.596C15.3052 31.9045 15.7405 32.1585 16.2045 32.351C18.1897 33.1753 20.2942 33.5424 22.4079 33.8426C26.9227 34.4845 31.4632 34.6345 36.2395 34.6576V34.6599ZM41.6606 16.1103L41.6863 16.3112C41.9072 16.4591 42.1418 16.5859 42.387 16.6899C43.2821 16.9979 44.1936 17.2577 45.1173 17.468C48.5297 18.1306 51.9794 18.193 55.4361 17.9067C57.3514 17.7473 59.2573 17.4957 61.065 16.7984C61.4446 16.6264 61.8142 16.4337 62.1721 16.2212C61.9095 16.0409 61.6322 15.8826 61.343 15.7478C60.6184 15.4777 59.8783 15.2503 59.1265 15.0667C55.5287 14.3245 51.8348 14.1492 48.1816 14.5472C46.3995 14.7273 44.6408 15.1706 42.8821 15.5423C42.4547 15.6324 42.067 15.9141 41.6606 16.108V16.1103ZM64.0056 35.5512C65.5004 35.5212 66.7336 34.4198 66.757 32.9929C66.8013 30.1114 66.8083 27.2207 66.757 24.3508C66.7266 22.6491 65.0706 21.6309 64.0056 21.811V35.5512Z" fill="#1A1A1A"/>
<path d="M61.9332 68.3992C60.244 68.3992 58.5408 68.538 56.8704 68.364C54.8401 68.1523 53.3659 66.9342 52.4758 65.0928C52.0342 64.1804 51.3917 63.7877 50.4104 63.79C43.8999 63.7994 37.3894 63.7994 30.8789 63.79C30.0098 63.79 29.3439 64.0793 28.9351 64.9047C27.6361 67.5409 25.3208 68.7614 22.3934 68.4533C19.5094 68.1672 16.7967 66.942 14.6672 64.9635C14.0385 64.406 13.5349 63.7202 13.1899 62.9516C12.8449 62.183 12.6665 61.3493 12.6665 60.506C12.6665 59.6626 12.8449 58.8289 13.1899 58.0603C13.5349 57.2917 14.0385 56.6059 14.6672 56.0484C17.146 53.7979 20.0267 52.5374 23.3817 52.521C25.9049 52.521 27.7646 53.6968 28.886 55.9802C29.0432 56.3608 29.3135 56.6831 29.6598 56.9029C30.0062 57.1226 30.4116 57.2292 30.8205 57.2078H50.5273C51.4361 57.2078 52.0435 56.8033 52.4547 55.9685C53.5668 53.7109 55.4102 52.5468 57.91 52.5186C60.6692 52.4834 63.4284 52.5069 66.1876 52.5186C67.6127 52.5186 68.6524 53.5087 68.6617 54.8491C68.6711 56.1895 67.6268 57.2007 66.1666 57.2172C65.3512 57.2172 64.5311 57.1866 63.7181 57.2384C63.4961 57.2525 63.1364 57.4853 63.106 57.664C63.0359 58.0591 63.3746 58.1555 63.7228 58.1532C64.5778 58.1532 65.4353 58.1532 66.2927 58.1532C66.6042 58.1481 66.9136 58.2059 67.2026 58.323C67.4917 58.4401 67.7545 58.6142 67.9756 58.8351C68.1968 59.0559 68.3719 59.3191 68.4905 59.6091C68.6091 59.8991 68.669 60.21 68.6664 60.5236C68.659 61.1469 68.4061 61.7417 67.9632 62.1774C67.5203 62.6131 66.9236 62.8539 66.3044 62.847C65.4867 62.8611 64.669 62.847 63.8559 62.847C63.4915 62.847 63.0849 62.847 63.092 63.3315C63.092 63.783 63.4845 63.7853 63.8303 63.7853C64.6456 63.7853 65.4657 63.7853 66.2787 63.7853C66.5898 63.7784 66.8991 63.8342 67.1885 63.9493C67.478 64.0643 67.7416 64.2365 67.964 64.4555C68.1865 64.6746 68.3632 64.9362 68.4838 65.2249C68.6044 65.5137 68.6665 65.8237 68.6664 66.137C68.6664 67.4562 67.6361 68.4651 66.26 68.4886C64.8232 68.4886 63.384 68.4886 61.9472 68.4886L61.9332 68.3992ZM61.8093 66.6073C63.2485 66.6073 64.6853 66.6073 66.1245 66.6073C66.4726 66.6073 66.8137 66.5156 66.7436 66.1205C66.7133 65.9394 66.3558 65.7066 66.1338 65.6901C65.3395 65.6384 64.5405 65.6737 63.7438 65.6713C62.2322 65.6713 61.1739 64.6907 61.1879 63.3032C61.2019 61.9158 62.2415 60.9751 63.7157 60.9704C64.5334 60.9704 65.3512 61.001 66.1642 60.9492C66.3768 60.9351 66.5731 60.6529 66.7763 60.4954C66.5684 60.3425 66.3675 60.0697 66.1502 60.0556C65.2975 60.0039 64.4424 60.0556 63.5803 60.0321C62.2089 60.018 61.1809 59.0044 61.1809 57.6805C61.1809 56.3565 62.2065 55.3476 63.5756 55.3288C64.3933 55.3288 65.211 55.3288 66.024 55.3288C66.3722 55.3288 66.7483 55.3288 66.7553 54.8703C66.7623 54.4117 66.4002 54.3999 66.0544 54.3999C63.3139 54.3999 60.5734 54.3788 57.8329 54.3999C56.1531 54.4188 54.8775 55.2089 54.1532 56.7516C53.3916 58.3695 52.1463 59.1032 50.3988 59.1032C43.9069 59.1032 37.4151 59.1032 30.9233 59.1032C29.1757 59.1032 27.9328 58.3766 27.1665 56.7516C26.4305 55.1971 25.1362 54.3999 23.4284 54.3999C20.3912 54.3999 17.8212 55.5569 15.6812 57.6711C15.3113 58.0407 15.0178 58.4803 14.8174 58.9647C14.6171 59.449 14.514 59.9684 14.514 60.493C14.514 61.0176 14.6171 61.5371 14.8174 62.0214C15.0178 62.5057 15.3113 62.9454 15.6812 63.315C17.7955 65.3938 20.3398 66.5367 23.3186 66.5791C25.0988 66.6049 26.4259 65.7889 27.1945 64.1686C27.9305 62.6166 29.1383 61.8923 30.8111 61.8923H50.4618C52.1603 61.8923 53.3776 62.6213 54.1205 64.1969C54.8635 65.7725 56.1648 66.5485 57.896 66.5838C59.2043 66.6237 60.508 66.6073 61.8163 66.6073H61.8093Z" fill="#1A1A1A"/>
</svg>
