<svg width="80" height="81" viewBox="0 0 80 81" fill="none" xmlns="http://www.w3.org/2000/svg">
<path d="M46.7396 74.4797H43.612H40.4701H30.6445C28.7622 74.4797 27.1485 73.7249 26.1059 72.3663C25.0634 71.0077 24.7492 69.2659 25.2005 67.4312C25.629 65.6894 25.9774 63.9476 25.5518 62.0606C25.1519 60.2782 25.2233 58.3216 25.7831 55.7205C25.8746 55.2851 25.8746 54.835 25.7831 54.3996C25.2176 51.7901 25.2176 49.0868 25.7831 46.4773C25.8803 46.0181 25.8803 45.5431 25.7831 45.0839C25.2176 42.4744 25.2176 39.7711 25.7831 37.1616C25.8745 36.7272 25.8745 36.278 25.7831 35.8436C25.2176 33.2341 25.2176 30.5308 25.7831 27.9213C25.8803 27.4621 25.8803 26.9871 25.7831 26.5279C25.219 23.9182 25.219 21.2152 25.7831 18.6056C25.8869 18.0593 25.9631 17.508 26.0116 16.9538C26.0631 16.4574 26.1145 15.9435 26.2116 15.4558C26.7606 12.669 28.236 10.1587 30.39 8.34629C32.5441 6.53383 35.246 5.52939 38.0423 5.50145H39.0305C39.5647 5.50145 40.0988 5.50145 40.6329 5.50145C41.9175 5.48994 43.2017 5.54711 44.4803 5.67272C50.1929 6.29977 54.9199 11.5832 54.9971 17.456C55.0399 20.7654 55.0342 24.1329 55.0314 27.3872C55.0314 30.0202 55.0314 32.7432 55.0314 35.4227C55.0593 36.2484 55.1451 37.0711 55.2884 37.8844C55.3484 38.285 55.4112 38.7002 55.4569 39.1066C55.7026 41.2432 55.4741 43.3276 55.2199 45.0868C55.1557 45.8225 55.2049 46.564 55.3655 47.2844C55.3941 47.4585 55.4255 47.6327 55.4512 47.804C55.7995 49.8916 55.7305 52.0291 55.2484 54.089C55.0428 54.9251 55.1913 55.6769 55.3341 56.4114C55.3798 56.6465 55.4284 56.8904 55.4598 57.1313C55.7582 59.3018 55.6799 61.5086 55.2284 63.6515C55.146 64.1325 55.1537 64.6249 55.2513 65.103C55.3484 65.611 55.4741 66.1161 55.594 66.6067C55.694 67.0161 55.7997 67.4399 55.8797 67.855C56.0483 68.6566 56.0396 69.4861 55.8544 70.2839C55.6691 71.0816 55.312 71.8275 54.8086 72.4679C54.3147 73.0945 53.69 73.6019 52.9797 73.9533C52.2694 74.3047 51.4912 74.4915 50.7013 74.5C49.5388 74.4739 48.2706 74.4797 46.7396 74.4797ZM27.4455 65.4543C27.3741 65.7446 27.3027 66.0349 27.2313 66.3252C27.077 66.9435 26.9199 67.5821 26.7943 68.2179C26.6814 68.7673 26.6905 69.3354 26.821 69.8808C26.9514 70.4262 27.1999 70.9351 27.5484 71.3706C27.8861 71.7901 28.3114 72.1278 28.7936 72.3593C29.2759 72.5908 29.8028 72.7102 30.3361 72.7089C33.6522 72.7234 37.0854 72.7321 40.5387 72.7321C43.9224 72.7321 47.3061 72.7253 50.6899 72.7118C51.2193 72.7121 51.7424 72.5942 52.2221 72.3664C52.7018 72.1387 53.1265 71.8067 53.4661 71.3938C53.8142 70.9684 54.0661 70.4705 54.2038 69.9352C54.3415 69.3999 54.3617 68.8404 54.263 68.2963C54.1459 67.6373 53.9774 66.9754 53.806 66.3368C53.7289 66.0465 53.6518 65.7562 53.5804 65.4484L53.5261 65.2278H27.4884L27.4455 65.4543ZM27.4455 56.1879C26.9328 58.4918 26.9328 60.8831 27.4455 63.187L27.4969 63.4134H53.4604L53.5232 63.2073C54.0945 61.271 54.066 57.5697 53.4633 56.1385L53.389 55.9614H27.4941L27.4455 56.1879ZM27.4769 46.8983C26.9057 49.1103 26.9314 51.9988 27.5055 53.9206L27.5655 54.1267H53.509L53.5576 53.8974C54.0875 51.5958 54.0826 49.2005 53.5433 46.9012L53.4889 46.6805H27.5312L27.4769 46.8983ZM27.4769 37.5767C26.9057 39.8991 26.9285 42.8021 27.5055 44.6513L27.5712 44.8545H53.4833L53.529 44.6194C53.9863 42.3203 53.9863 39.9513 53.529 37.6522L53.4747 37.3822L53.2062 37.4229L52.9006 37.4664C52.6949 37.4983 52.5036 37.5245 52.3151 37.5622L47.8964 38.4157C44.1661 39.1182 40.313 39.844 36.5313 40.6074C36.0623 40.7184 35.5842 40.7855 35.1032 40.8078C34.4577 40.8078 34.3634 40.6016 33.9778 39.4956C33.9207 39.3272 33.8549 39.1443 33.7835 38.944C33.238 37.4548 33.1352 37.3822 31.5643 37.3822H27.5484L27.4769 37.5767ZM29.1593 21.1515L35.6202 38.9963L51.1297 36.0381L29.5791 20.7858L29.1593 21.1515ZM27.4455 28.3132C26.9302 30.6306 26.9302 33.0357 27.4455 35.353L27.4969 35.5765H32.544L31.9984 34.0583C31.3243 32.1916 30.6702 30.3744 29.999 28.56C29.9465 28.4369 29.8638 28.3295 29.7588 28.2482C29.6537 28.1668 29.53 28.1143 29.3992 28.0955C29.165 28.0955 28.9165 28.0781 28.5966 28.0781H27.7197H27.4884L27.4455 28.3132ZM53.2548 35.3937V28.1362H43.0265L53.2548 35.3937ZM40.6443 22.8382C39.39 22.8333 38.1388 22.9627 36.9112 23.2243L36.2657 23.3607L36.8055 23.7468L37.7166 24.4C38.4621 24.937 39.1677 25.4451 39.896 25.9241C40.2711 26.1691 40.7043 26.3065 41.1499 26.3218C43.3863 26.3363 45.56 26.3392 47.3937 26.3392H53.2576V18.864H48.4534V19.1543C48.4534 19.3546 48.4534 19.5491 48.4534 19.7349C48.4534 20.1413 48.4534 20.5274 48.4534 20.9106C48.4561 21.2419 48.3935 21.5705 48.2693 21.8769C48.1451 22.1832 47.9618 22.4612 47.7302 22.6945C47.4986 22.9277 47.2234 23.1114 46.9208 23.2348C46.6182 23.3582 46.2944 23.4188 45.9684 23.413C45.797 23.4132 45.6258 23.3977 45.4571 23.3665L45.1458 23.3114C44.3232 23.1633 43.4721 23.0211 42.6238 22.934C41.9268 22.8788 41.2841 22.8498 40.6529 22.8498L40.6443 22.8382ZM26.9771 22.2576L27.397 26.3073H29.1964L27.6712 22.1124L26.9771 22.2576ZM34.8832 14.3469C34.869 14.3875 34.8547 14.4195 34.8461 14.4485C34.8079 14.5273 34.7865 14.6133 34.7832 14.7011C34.7832 16.7274 34.7832 18.7527 34.7832 20.777C34.7832 21.3402 35.0689 21.6625 35.5659 21.6625C35.6919 21.661 35.8174 21.6454 35.94 21.616C37.5223 21.2746 39.1354 21.1024 40.7529 21.1022C42.3433 21.105 43.9296 21.2674 45.4886 21.587C45.6574 21.6264 45.8296 21.6487 46.0027 21.6538C46.7367 21.6538 46.7396 20.9686 46.7396 20.5158C46.7396 18.774 46.7396 17.0322 46.7396 15.3078C46.7396 14.8985 46.7396 14.2163 46.0027 14.2163C45.8383 14.22 45.6747 14.2405 45.5143 14.2772C43.9487 14.5997 42.3559 14.7659 40.7586 14.7736C39.8993 14.7731 39.0409 14.7198 38.188 14.614C37.5053 14.5298 36.8112 14.4137 36.14 14.3063C35.8286 14.254 35.5174 14.2017 35.206 14.1553L34.9718 14.1176L34.8832 14.3469ZM33.0295 21.0819V18.8814H29.9076L33.0295 21.0819ZM38.2165 7.22874C36.7893 7.21134 35.3743 7.49755 34.0624 8.06899C32.7505 8.64043 31.5707 9.48447 30.5988 10.5469C28.9842 12.2132 27.9767 14.3891 27.7426 16.7157L27.7083 17.038H33.0552V16.1032C33.0552 15.6562 33.0552 15.2323 33.0552 14.8085C33.0552 13.357 33.9407 12.3961 35.2346 12.3961C35.4489 12.3975 35.6625 12.4228 35.8715 12.4716C37.4652 12.8361 39.0936 13.0211 40.7271 13.0231C42.2854 13.0199 43.8394 12.8575 45.3657 12.5383C45.5715 12.495 45.7811 12.4727 45.9912 12.4716C47.4194 12.4716 48.4134 13.5515 48.4305 15.0843C48.4305 15.4587 48.4305 15.8303 48.4305 16.2048V17.0235H53.2119L53.1862 16.7099C52.8206 12.1058 48.9018 7.92255 44.4289 7.3884C43.1671 7.25288 41.8987 7.19278 40.6301 7.20841H39.4876H38.3622L38.2165 7.22874Z" fill="#1A1A1A"/>
<path d="M38.7907 19.5C38.6356 19.4981 38.4846 19.4345 38.3574 19.3175C38.2301 19.2006 38.1326 19.0357 38.0776 18.8445C38.0305 18.7141 38.0042 18.5723 38.0005 18.428C37.9967 18.2836 38.0156 18.1398 38.0558 18.0054C38.1028 17.8691 38.1708 17.7472 38.2554 17.6474C38.3401 17.5476 38.4396 17.472 38.5476 17.4256C39.0939 17.1555 39.6785 16.9574 40.2823 16.7485L40.9953 16.5C41.2384 16.59 41.4815 16.6729 41.7192 16.7521C42.2937 16.9325 42.8608 17.1513 43.4184 17.4076C43.5308 17.4534 43.6348 17.5292 43.7241 17.6302C43.8134 17.7312 43.886 17.8552 43.9375 17.9946C43.9788 18.124 44 18.263 44 18.4034C44 18.5437 43.9788 18.6827 43.9375 18.8121C43.8852 19.0112 43.787 19.1837 43.6568 19.3058C43.5265 19.4278 43.3706 19.4932 43.2108 19.4928C43.0608 19.4894 42.913 19.4452 42.7765 19.3631C42.2184 19.0344 41.6147 18.8615 41.0035 18.8553C40.3808 18.8644 39.7661 19.0422 39.1977 19.3776C39.0698 19.4546 38.9313 19.4962 38.7907 19.5Z" fill="#1A1A1A"/>
</svg>
