<svg width="81" height="80" viewBox="0 0 81 80" fill="none" xmlns="http://www.w3.org/2000/svg">
  <path
    d="M71.1826 47.7115C71.4931 48.7184 71.8225 49.6461 72.0682 50.5949C72.7324 53.1692 73.3642 55.7513 74.0041 58.3308C74.058 58.544 74.0905 58.7617 74.1013 58.981C74.1196 59.107 74.1098 59.2354 74.0728 59.3574C74.0358 59.4794 73.9723 59.5922 73.8867 59.688C73.8011 59.7838 73.6954 59.8605 73.5768 59.9127C73.4582 59.9649 73.3295 59.9915 73.1995 59.9906C72.9754 60.0117 72.7486 59.9906 72.5245 59.9906H9.42984C8.47942 59.9721 8.09602 59.5545 8.29852 58.648C8.73593 56.6526 9.17603 54.6545 9.69174 52.6776C10.1372 50.9649 10.6908 49.2761 11.1255 47.5397C10.3154 48.796 9.50543 50.0496 8.69542 51.3006C8.14191 52.1569 7.66401 52.3736 7.0997 52.0274C6.53539 51.6812 6.51919 51.1631 7.07 50.3068C10.8501 44.4553 14.5734 38.5774 18.3913 32.755C21.1129 28.6029 24.4448 24.998 28.8054 22.4184C32.9768 19.9232 37.832 18.7457 42.7111 19.0459C47.5902 19.3462 52.2565 21.1097 56.0758 24.0967C59.5265 26.7529 62.2643 30.0169 64.5864 33.6351C68.145 39.1783 71.6974 44.7285 75.2434 50.2857C75.8185 51.1843 75.8078 51.705 75.2084 52.0512C74.609 52.3974 74.185 52.1595 73.6207 51.2874C72.8791 50.135 72.1348 48.9845 71.3878 47.8357C71.35 47.804 71.2987 47.7881 71.1826 47.7115ZM63.5199 58.0983C63.5231 57.9587 63.5158 57.8192 63.4982 57.6807C62.6882 53.8986 62.0159 50.0901 61.0682 46.3451C59.6912 40.9191 57.7742 35.6702 54.9148 30.7966C53.203 27.8761 51.1725 25.2041 48.3267 23.2272C45.3971 21.1947 42.1679 20.4256 38.6227 21.1842C35.7067 21.8053 33.3846 23.4148 31.3758 25.5054C28.4571 28.5448 26.4941 32.1656 24.8471 35.9636C22.382 41.6485 20.797 47.5925 19.5928 53.6317C19.3012 55.1064 19.0528 56.5891 18.7828 58.0983H63.5199ZM30.3768 23.7848L30.3066 23.695C29.8206 23.991 29.3265 24.2738 28.854 24.5857C24.6932 27.337 21.607 31.0477 19.0501 35.2129C15.6642 40.7288 13.3314 46.6754 11.6277 52.8705C11.1579 54.5831 10.7583 56.3063 10.3128 58.085H16.8496C17.0467 56.9354 17.2222 55.828 17.4247 54.7258C18.5749 48.4938 20.1247 42.3727 22.5548 36.4895C24.2126 32.4352 26.2106 28.5606 29.1051 25.1988C29.5101 24.7099 29.9475 24.2526 30.3768 23.7848ZM71.9791 58.1009C71.9494 57.9185 71.9305 57.7679 71.8981 57.6225C70.243 50.0214 67.7319 42.7269 63.7629 35.9503C61.5218 32.1313 58.8353 28.6505 55.2955 25.878C54.2722 25.0852 53.1652 24.3821 52.0986 23.6368L51.988 23.7716C52.0366 23.8298 52.0797 23.8958 52.1338 23.9487C54.3631 26.2776 56.2225 28.9209 57.65 31.7903C61.2302 38.7334 63.2687 46.1548 64.7511 53.748C65.0211 55.1857 65.2641 56.6341 65.5233 58.0903L71.9791 58.1009Z"
    fill="#1A1A1A" />
  <path
    d="M41.1599 56.9947H28.1235C26.8364 56.9947 26.5168 56.6528 26.7251 55.4718C27.4015 51.6106 28.0779 47.7493 28.7828 43.8986C28.8854 43.4515 29.0544 43.0195 29.2851 42.615C32.3073 36.7863 42.5925 32.996 49.6186 39.1456C51.1429 40.4134 52.2044 42.0846 52.6579 43.9301C53.5769 47.8151 54.6071 51.6763 55.5888 55.5481C55.8457 56.5581 55.4747 57 54.3389 57C49.9478 57 45.5548 56.9982 41.1599 56.9947ZM53.3286 55.0746C53.3405 55.0254 53.3471 54.9752 53.3486 54.9247C52.4667 51.4606 51.5307 48.0071 50.7231 44.5272C50.3893 43.0685 49.5949 41.7333 48.44 40.6896C46.7899 39.1111 44.5785 38.1326 42.2101 37.9331C42.133 38.5617 41.8533 39.0167 41.1656 39.0194C40.4778 39.022 40.1781 38.5249 40.0897 37.9515C36.8705 38.1803 33.3061 40.1162 31.648 42.5676C31.2358 43.1275 30.9362 43.7512 30.7633 44.4088C30.2411 46.9839 29.813 49.5747 29.3535 52.1629C29.1823 53.1203 29.0225 54.083 28.8541 55.0773H40.1524V41.9258C40.1394 41.7079 40.1508 41.4893 40.1867 41.2735C40.2221 41.0529 40.3476 40.853 40.5374 40.7147C40.7273 40.5764 40.9672 40.51 41.2084 40.5292C41.4506 40.5255 41.6849 40.6088 41.8617 40.7614C42.0385 40.9141 42.144 41.1241 42.1558 41.3472C42.1744 41.565 42.1801 41.7837 42.173 42.0021V55.0799L53.3286 55.0746Z"
    fill="#1A1A1A" />
</svg>