<svg width="80" height="81" viewBox="0 0 80 81" fill="none" xmlns="http://www.w3.org/2000/svg">
<path d="M14.2191 67.5C13.7599 67.5003 13.3011 67.4755 12.8447 67.4255C12.241 67.3531 11.6844 67.0652 11.279 66.6155C10.8736 66.1658 10.647 65.5851 10.6417 64.9819C10.6167 63.6682 10.5892 62.3098 10.6618 60.9564C10.7049 60.6349 10.8122 60.3251 10.9772 60.045C11.0498 59.9035 11.1224 59.7545 11.1799 59.6079C11.2175 59.5161 11.2601 59.4267 11.3026 59.3348C11.4193 59.1328 11.491 58.9084 11.5129 58.6767C11.5279 49.3418 11.5279 39.853 11.5279 30.677V25.9289C11.4028 25.9289 11.2776 25.9165 11.1825 25.9165H10.6392C10.4823 25.9165 10.3271 25.9165 10.1736 25.9165C9.88734 25.9202 9.60327 25.8667 9.33831 25.7593C9.07334 25.6518 8.83289 25.4925 8.63129 25.2909C8.42969 25.0893 8.27107 24.8495 8.16487 24.5858C8.05867 24.3221 8.00707 24.0399 8.01314 23.756C7.99562 22.6981 7.99562 21.6551 8.01314 20.6568C8.01217 20.1379 8.20254 19.6366 8.54838 19.2473C8.89423 18.858 9.37165 18.6077 9.89069 18.5434C10.1588 18.5096 10.4291 18.4955 10.6993 18.5012H57.1073C57.2795 18.4992 57.4516 18.5067 57.623 18.5236C57.7701 18.5065 57.9181 18.4991 58.0661 18.5012H58.8897H64.7552H69.5116C71.1363 18.5012 71.995 19.3629 72 20.9846V21.5259C72 22.2337 72 22.9414 72 23.6492C71.9875 25.015 71.1288 25.8842 69.7469 25.9214H69.3064H68.4827L68.4702 26.7111V49.4585C68.4702 49.5753 68.4702 49.692 68.4702 49.8062V49.8956C68.4702 50.8889 68.4702 51.8649 68.4702 52.8508C68.4702 54.7878 68.4702 56.7894 68.4852 58.7611C68.5048 58.9594 68.568 59.151 68.6705 59.3224C68.7131 59.4093 68.7556 59.4937 68.7882 59.5707C68.8482 59.7247 68.9233 59.8786 68.9959 60.0301C69.1713 60.3371 69.2868 60.6741 69.3364 61.0234C69.4065 62.1782 69.3865 63.3603 69.3665 64.5001V64.9248C69.3704 65.5375 69.1458 66.1301 68.7359 66.5886C68.326 67.047 67.7597 67.3389 67.1459 67.4081C66.7101 67.453 66.2723 67.4754 65.8342 67.4752C65.381 67.4752 64.9204 67.4503 64.4698 67.4056C63.8753 67.3367 63.3261 67.0565 62.9238 66.6168C62.5216 66.1771 62.2935 65.6078 62.2818 65.0142C62.2468 63.7725 62.2192 62.3471 62.2993 60.9266C62.3482 60.5927 62.4658 60.2723 62.6448 59.9854C62.7224 59.8389 62.8025 59.6849 62.8651 59.5334C62.8951 59.4639 62.9327 59.3919 62.9677 59.3199C63.0682 59.1523 63.1306 58.965 63.1505 58.7711C63.1505 57.7206 63.1505 56.6528 63.1505 55.6222C63.1505 54.6462 63.1505 53.6703 63.1505 52.6968C63.1685 52.5368 63.1306 52.3755 63.0431 52.2399C62.9556 52.1043 62.8239 52.0026 62.6699 51.9518L53.5374 47.7301C49.1665 45.7153 44.7872 43.693 40.3996 41.6633C40.2802 41.6128 40.1513 41.5883 40.0216 41.5913C39.8729 41.589 39.7253 41.6178 39.5885 41.6758C35.4896 43.5631 31.3932 45.4546 27.2993 47.3502L17.3033 51.9692C17.1484 52.0232 17.017 52.1285 16.9313 52.2673C16.8455 52.4062 16.8107 52.5702 16.8326 52.7316C16.8326 53.6703 16.8326 54.6065 16.8326 55.5452C16.8326 56.6155 16.8326 57.7181 16.8451 58.8058C16.8666 58.9824 16.9273 59.152 17.0229 59.3025C17.0663 59.3829 17.1048 59.4658 17.138 59.5508C17.2006 59.7073 17.2757 59.8637 17.3483 60.0177C17.5278 60.3452 17.6474 60.7017 17.7013 61.0706C17.7689 62.1037 17.7514 63.1616 17.7339 64.1823C17.7339 64.4058 17.7339 64.6268 17.7339 64.8503C17.7507 65.4954 17.5177 66.1224 17.0828 66.6023C16.6479 67.0822 16.0441 67.3786 15.3957 67.4305C15.0051 67.4801 14.6096 67.5 14.2191 67.5ZM13.0149 60.7056C12.9416 60.6985 12.8677 60.7064 12.7975 60.7286C12.7274 60.7508 12.6625 60.7869 12.6069 60.8347C12.555 60.9018 12.5174 60.9787 12.4963 61.0606C12.4753 61.1426 12.4711 61.2279 12.4842 61.3115C12.4842 61.7138 12.4842 62.1211 12.4842 62.5184C12.4842 62.6923 12.4842 62.8686 12.4842 63.0424V63.554C12.4842 63.9414 12.4842 64.3263 12.4842 64.7137C12.4842 65.3718 12.7346 65.6251 13.398 65.6474C13.6483 65.6474 13.8986 65.6623 14.149 65.6623C14.3993 65.6623 14.7248 65.6623 15.0102 65.6474C15.1271 65.6573 15.2447 65.6414 15.3547 65.6007C15.4646 65.5601 15.5641 65.4958 15.646 65.4124C15.7279 65.3291 15.7901 65.2287 15.8282 65.1186C15.8663 65.0085 15.8793 64.8914 15.8663 64.7758V63.7427C15.8663 62.9257 15.8663 62.0813 15.8663 61.2594C15.8817 61.1094 15.8367 60.9594 15.7411 60.8422C15.6832 60.794 15.6161 60.758 15.5439 60.7363C15.4716 60.7145 15.3957 60.7074 15.3206 60.7155H15.283C14.8925 60.7254 14.5019 60.7304 14.1114 60.7304C13.7309 60.7304 13.3804 60.7304 13.04 60.713L13.0149 60.7056ZM64.66 60.7056C64.5853 60.69 64.5078 60.6932 64.4346 60.7147C64.3614 60.7363 64.2947 60.7755 64.2406 60.829C64.1865 60.8824 64.1466 60.9484 64.1246 61.0209C64.1025 61.0934 64.099 61.1702 64.1143 61.2445C64.1143 62.1484 64.1143 63.0722 64.1143 63.9612V64.7683C64.1001 64.8839 64.1121 65.0012 64.1493 65.1116C64.1866 65.2221 64.2483 65.3229 64.3299 65.4066C64.4115 65.4904 64.5108 65.555 64.6208 65.5958C64.7307 65.6366 64.8485 65.6526 64.9655 65.6425C65.2458 65.6425 65.5287 65.6574 65.8116 65.6574C66.0945 65.6574 66.3699 65.6574 66.6478 65.6449C67.2336 65.6251 67.5214 65.3122 67.5089 64.7162C67.5089 64.3263 67.5089 63.9389 67.5089 63.549V63.0523C67.5089 62.8785 67.5089 62.7047 67.5089 62.5308C67.5089 62.1335 67.5089 61.7237 67.5089 61.319C67.5222 61.2344 67.518 61.1481 67.4965 61.0653C67.4749 60.9824 67.4366 60.9048 67.3837 60.8372C67.3285 60.7896 67.2641 60.7535 67.1943 60.7313C67.1246 60.7092 67.0511 60.7012 66.9782 60.7081H66.9331C66.5977 60.7081 66.2497 60.7254 65.8692 60.7254C65.4887 60.7254 65.0831 60.7254 64.6901 60.7105L64.66 60.7056ZM13.4355 58.8456H14.9376V25.9736L13.4355 25.9612V58.8456ZM65.0606 58.8083H66.6052V58.1428V49.9726C66.6052 49.913 66.6052 49.8484 66.6052 49.7839C66.5809 49.6659 66.5809 49.5442 66.6052 49.4263V25.986L65.0481 25.9736L65.0606 58.8083ZM16.8627 50.1315L26.721 45.5845L37.736 40.4788C36.637 38.7951 36.6345 37.8663 37.736 36.1379L23.6394 29.5968L16.8602 26.4603L16.8627 50.1315ZM42.2396 36.1379C43.3637 37.5981 43.3687 39.0037 42.2396 40.4539L63.0904 50.139L63.108 26.4852L42.2396 36.1379ZM39.954 37.0965C39.63 37.1004 39.3209 37.2319 39.0946 37.462C38.8683 37.692 38.7434 38.0018 38.7474 38.3232C38.7514 38.6446 38.8839 38.9513 39.1158 39.1758C39.3477 39.4003 39.6601 39.5242 39.9841 39.5202C40.3081 39.5225 40.6197 39.397 40.8505 39.1714C41.0812 38.9458 41.2121 38.6384 41.2145 38.317C41.2168 37.9956 41.0903 37.6865 40.8629 37.4576C40.6354 37.2287 40.3256 37.0988 40.0016 37.0965H39.954ZM20.2873 25.9413L20.5377 26.0928C20.6275 26.1533 20.7212 26.208 20.818 26.2567L21.8194 26.7161C27.6273 29.4056 33.6329 32.1795 39.5485 34.9111C39.7062 34.9795 39.877 35.0134 40.0492 35.0105C40.1779 35.0145 40.306 34.9908 40.4247 34.9409C46.0047 32.3781 51.6699 29.7532 57.1473 27.2153L59.4279 26.1598C59.4805 26.135 59.5331 26.0978 59.5907 25.9363L58.9623 25.9214H20.2498L20.2873 25.9413ZM10.8846 20.3389C9.8832 20.3389 9.86566 20.3389 9.86316 21.3322C9.86316 21.5458 9.86316 21.7594 9.86316 21.9705C9.86316 22.4522 9.86316 22.9638 9.86316 23.4381C9.85015 23.5252 9.85475 23.6139 9.87666 23.6992C9.89858 23.7844 9.93739 23.8645 9.99083 23.9348C10.0618 23.9937 10.1441 24.0375 10.2328 24.0636C10.3215 24.0896 10.4147 24.0974 10.5065 24.0863C11.3327 24.0863 12.1337 24.0738 12.9373 24.0738H16.5322H69.1361C70.1375 24.0738 70.1375 24.0738 70.1375 23.0805C70.1375 22.8744 70.1375 22.6658 70.1375 22.4572C70.1375 21.9903 70.1225 21.5086 70.1525 21.0367C70.169 20.9409 70.1655 20.8428 70.1423 20.7484C70.119 20.654 70.0765 20.5653 70.0173 20.4879C69.9345 20.4207 69.8387 20.3711 69.7358 20.342C69.6329 20.313 69.5251 20.3052 69.419 20.319C67.5281 20.319 65.6455 20.319 63.7713 20.319H58.0135C57.8934 20.319 57.7632 20.319 57.653 20.319C57.5429 20.319 57.3777 20.319 57.24 20.319H10.8846V20.3389Z" fill="#1A1A1A"/>
</svg>
