<svg width="81" height="81" viewBox="0 0 81 81" fill="none" xmlns="http://www.w3.org/2000/svg">
<path d="M25.4026 48.6283V51.1731C25.4026 54.1717 25.4026 57.1684 25.4026 60.1629C25.4449 60.4402 25.4139 60.7237 25.3127 60.9855C25.2288 61.1143 25.1187 61.2241 24.9894 61.308C24.8602 61.3918 24.7147 61.4478 24.5623 61.4723C24.3483 61.4723 24.0599 61.1642 23.9421 60.9331C23.8688 60.6874 23.8508 60.4287 23.8894 60.1753V48.7208C22.1312 49.0781 20.4784 49.3369 18.8287 49.759C14.8538 50.7651 11.0496 52.3471 7.53842 54.4542C7.32191 54.5528 7.14201 54.7165 7.02408 54.9221C6.90614 55.1277 6.8561 55.3649 6.88103 55.6002C6.92134 57.2146 6.88103 58.8289 6.88103 60.4402C6.88103 61.0194 6.73839 61.5216 6.0655 61.4969C5.44532 61.4754 5.33059 60.9824 5.33369 60.4402C5.33369 58.4962 5.33369 56.5491 5.33369 54.5866C5.32541 54.3367 5.39234 54.09 5.52595 53.878C11.3773 46.176 15.8798 37.6945 19.6009 28.8032C21.0211 25.4143 22.2707 21.9361 23.5607 18.4855C23.7518 17.9333 23.8503 17.3535 23.8522 16.7695C23.8863 15.0289 23.8708 13.2851 23.8522 11.5321C23.8522 10.9899 23.9607 10.5062 24.6026 10.5001C25.2445 10.4939 25.384 10.9776 25.384 11.5167C25.384 13.1557 25.384 14.7947 25.384 16.446C25.384 16.9605 25.4739 17.2008 26.0724 17.2809C35.078 18.5002 44.2049 18.551 53.2237 17.4319C53.94 17.3426 54.6563 17.2563 55.3695 17.1485C56.3835 16.9975 56.5633 17.0961 56.9013 18.0727C58.8574 23.7889 61.1349 29.3915 63.7233 34.854C66.9048 41.5024 70.5731 47.8674 75.0043 53.7856C75.1963 54.0489 75.3043 54.3634 75.3144 54.6883C75.3423 56.6107 75.3144 58.5301 75.333 60.4525C75.333 60.9978 75.2059 61.4846 74.5857 61.4938C73.9097 61.4938 73.7795 60.9978 73.7826 60.4248C73.7826 58.8351 73.7609 57.2485 73.7826 55.6618C73.7826 55.135 73.6337 54.9163 73.1283 54.7376C63.8847 51.5788 53.8438 51.5788 44.6002 54.7376C44.0761 54.9163 43.8808 55.1473 43.8963 55.7111C43.9366 57.2978 43.8962 58.8875 43.9117 60.4741C43.9117 61.0225 43.7908 61.5 43.1551 61.5C42.5195 61.5 42.3737 61.0256 42.3737 60.4833C42.3737 58.7673 42.3985 57.0482 42.3551 55.3353C42.3339 54.9109 42.1978 54.5001 41.9613 54.1461C40.9659 52.655 39.9302 51.1854 38.8852 49.7251C38.7306 49.4727 38.4929 49.2811 38.2124 49.1829C33.9863 48.4326 29.6783 48.2461 25.4026 48.6283ZM72.3903 52.8152C64.9482 42.251 59.6767 30.7534 55.4905 18.7012C45.6184 20.0877 35.6009 20.1126 25.722 18.7751C26.7019 21.3476 27.6042 23.8246 28.5841 26.2677C32.3641 35.6889 36.9565 44.6725 42.9691 52.9168C43.3071 53.382 43.5644 53.5083 44.1505 53.3112C51.6167 50.7134 59.6462 50.1464 67.4071 51.6691C69.0134 51.9833 70.629 52.4085 72.3903 52.8152ZM23.8305 22.7617C19.8799 32.9284 15.21 42.7131 9.05475 51.7769C13.6821 49.4366 18.6803 47.9047 23.8305 47.2481V22.7617ZM25.4398 46.8476L37.3069 47.245C32.5563 39.5676 28.7639 31.3264 25.4398 22.848V46.8476Z" fill="#1A1A1A"/>
<path d="M54.3435 30.5C54.5819 30.7652 54.7872 31.0546 54.9556 31.3628C55.5998 32.9057 56.0669 34.5414 56.8883 36.0003C57.7096 37.4593 58.8499 38.6966 59.9 40.0088C60.2221 40.4192 60.5668 40.7907 60.1191 41.237C59.623 41.7344 59.1527 41.4408 58.7469 41.0603C56.1699 38.7056 54.7558 35.7517 53.6961 32.6151C53.5486 32.217 53.4323 31.8095 53.3482 31.3958C53.2612 30.8865 53.5415 30.5869 54.3435 30.5Z" fill="#1A1A1A"/>
<path d="M38.24 24.5C36.6055 24.2921 34.8365 24.0733 33.0705 23.8411C32.5536 23.7709 32.2368 23.4982 32.3593 23.0013C32.4818 22.5044 32.8822 22.4612 33.3514 22.5206C35.0248 22.7042 36.6952 22.9365 38.3745 23.0283C39.3039 23.0796 40.2481 22.9068 41.1834 22.796C41.6974 22.7339 42.1815 22.7312 42.3099 23.274C42.4384 23.8168 42.0111 24.0436 41.4972 24.1138C40.4662 24.23 39.4353 24.3488 38.24 24.5Z" fill="#1A1A1A"/>
</svg>
